<svg width="253" height="352" viewBox="0 0 253 352" fill="none" xmlns="http://www.w3.org/2000/svg">
<path d="M24.8282 4.69159H227.922C239.048 4.69159 248.088 13.7322 248.088 24.858V326.669C248.088 337.794 239.063 346.835 227.922 346.835H24.8282C13.7025 346.835 4.66187 337.809 4.66187 326.669V24.8431C4.66187 13.7173 13.6876 4.6767 24.8282 4.6767V4.69159Z" fill="#17478F"/>
<path d="M34.986 28.5517C40.1681 28.5517 44.3691 24.3507 44.3691 19.1685C44.3691 13.9863 40.1681 9.78532 34.986 9.78532C29.8038 9.78532 25.6028 13.9863 25.6028 19.1685C25.6028 24.3507 29.8038 28.5517 34.986 28.5517Z" fill="#2162C1"/>
<path d="M126.435 28.5517C131.617 28.5517 135.818 24.3507 135.818 19.1685C135.818 13.9863 131.617 9.78532 126.435 9.78532C121.253 9.78532 117.052 13.9863 117.052 19.1685C117.052 24.3507 121.253 28.5517 126.435 28.5517Z" fill="#2162C1"/>
<path d="M80.7103 28.5517C85.8925 28.5517 90.0935 24.3507 90.0935 19.1685C90.0935 13.9863 85.8925 9.78532 80.7103 9.78532C75.5281 9.78532 71.3271 13.9863 71.3271 19.1685C71.3271 24.3507 75.5281 28.5517 80.7103 28.5517Z" fill="#2162C1"/>
<path d="M172.099 28.5517C177.282 28.5517 181.483 24.3507 181.483 19.1685C181.483 13.9863 177.282 9.78532 172.099 9.78532C166.917 9.78532 162.716 13.9863 162.716 19.1685C162.716 24.3507 166.917 28.5517 172.099 28.5517Z" fill="#2162C1"/>
<path d="M217.779 28.5517C222.961 28.5517 227.162 24.3507 227.162 19.1685C227.162 13.9863 222.961 9.78532 217.779 9.78532C212.597 9.78532 208.396 13.9863 208.396 19.1685C208.396 24.3507 212.597 28.5517 217.779 28.5517Z" fill="#2162C1"/>
<path d="M11.1407 60.9907C16.3229 60.9907 20.5239 56.7897 20.5239 51.6075C20.5239 46.4253 16.3229 42.2243 11.1407 42.2243C5.95856 42.2243 1.75757 46.4253 1.75757 51.6075C1.75757 56.7897 5.95856 60.9907 11.1407 60.9907Z" fill="#2162C1"/>
<path d="M240.85 60.9907C246.032 60.9907 250.233 56.7897 250.233 51.6075C250.233 46.4253 246.032 42.2243 240.85 42.2243C235.668 42.2243 231.467 46.4253 231.467 51.6075C231.467 56.7897 235.668 60.9907 240.85 60.9907Z" fill="#2162C1"/>
<path d="M102.589 60.9907C107.772 60.9907 111.973 56.7897 111.973 51.6075C111.973 46.4253 107.772 42.2243 102.589 42.2243C97.4073 42.2243 93.2063 46.4253 93.2063 51.6075C93.2063 56.7897 97.4073 60.9907 102.589 60.9907Z" fill="#2162C1"/>
<path d="M56.8651 60.9907C62.0473 60.9907 66.2483 56.7897 66.2483 51.6075C66.2483 46.4253 62.0473 42.2243 56.8651 42.2243C51.6829 42.2243 47.4819 46.4253 47.4819 51.6075C47.4819 56.7897 51.6829 60.9907 56.8651 60.9907Z" fill="#2162C1"/>
<path d="M148.269 60.9907C153.451 60.9907 157.652 56.7897 157.652 51.6075C157.652 46.4253 153.451 42.2243 148.269 42.2243C143.087 42.2243 138.886 46.4253 138.886 51.6075C138.886 56.7897 143.087 60.9907 148.269 60.9907Z" fill="#2162C1"/>
<path d="M193.934 60.9907C199.116 60.9907 203.317 56.7897 203.317 51.6075C203.317 46.4253 199.116 42.2243 193.934 42.2243C188.752 42.2243 184.551 46.4253 184.551 51.6075C184.551 56.7897 188.752 60.9907 193.934 60.9907Z" fill="#2162C1"/>
<path d="M34.986 98.8212C40.1681 98.8212 44.3691 94.6203 44.3691 89.4381C44.3691 84.2559 40.1681 80.0549 34.986 80.0549C29.8038 80.0549 25.6028 84.2559 25.6028 89.4381C25.6028 94.6203 29.8038 98.8212 34.986 98.8212Z" fill="#2162C1"/>
<path d="M126.435 98.8212C131.617 98.8212 135.818 94.6203 135.818 89.4381C135.818 84.2559 131.617 80.0549 126.435 80.0549C121.253 80.0549 117.052 84.2559 117.052 89.4381C117.052 94.6203 121.253 98.8212 126.435 98.8212Z" fill="#2162C1"/>
<path d="M80.7103 98.8212C85.8925 98.8212 90.0935 94.6203 90.0935 89.4381C90.0935 84.2559 85.8925 80.0549 80.7103 80.0549C75.5281 80.0549 71.3271 84.2559 71.3271 89.4381C71.3271 94.6203 75.5281 98.8212 80.7103 98.8212Z" fill="#2162C1"/>
<path d="M172.099 98.8212C177.282 98.8212 181.483 94.6203 181.483 89.4381C181.483 84.2559 177.282 80.0549 172.099 80.0549C166.917 80.0549 162.716 84.2559 162.716 89.4381C162.716 94.6203 166.917 98.8212 172.099 98.8212Z" fill="#2162C1"/>
<path d="M217.779 98.8212C222.961 98.8212 227.162 94.6203 227.162 89.4381C227.162 84.2559 222.961 80.0549 217.779 80.0549C212.597 80.0549 208.396 84.2559 208.396 89.4381C208.396 94.6203 212.597 98.8212 217.779 98.8212Z" fill="#2162C1"/>
<path d="M11.1407 131.275C16.3229 131.275 20.5239 127.074 20.5239 121.892C20.5239 116.71 16.3229 112.509 11.1407 112.509C5.95856 112.509 1.75757 116.71 1.75757 121.892C1.75757 127.074 5.95856 131.275 11.1407 131.275Z" fill="#2162C1"/>
<path d="M240.85 131.275C246.032 131.275 250.233 127.074 250.233 121.892C250.233 116.71 246.032 112.509 240.85 112.509C235.668 112.509 231.467 116.71 231.467 121.892C231.467 127.074 235.668 131.275 240.85 131.275Z" fill="#2162C1"/>
<path d="M102.589 131.275C107.772 131.275 111.973 127.074 111.973 121.892C111.973 116.71 107.772 112.509 102.589 112.509C97.4073 112.509 93.2063 116.71 93.2063 121.892C93.2063 127.074 97.4073 131.275 102.589 131.275Z" fill="#2162C1"/>
<path d="M56.8651 131.275C62.0473 131.275 66.2483 127.074 66.2483 121.892C66.2483 116.71 62.0473 112.509 56.8651 112.509C51.6829 112.509 47.4819 116.71 47.4819 121.892C47.4819 127.074 51.6829 131.275 56.8651 131.275Z" fill="#2162C1"/>
<path d="M148.269 131.275C153.451 131.275 157.652 127.074 157.652 121.892C157.652 116.71 153.451 112.509 148.269 112.509C143.087 112.509 138.886 116.71 138.886 121.892C138.886 127.074 143.087 131.275 148.269 131.275Z" fill="#2162C1"/>
<path d="M193.934 131.275C199.116 131.275 203.317 127.074 203.317 121.892C203.317 116.71 199.116 112.509 193.934 112.509C188.752 112.509 184.551 116.71 184.551 121.892C184.551 127.074 188.752 131.275 193.934 131.275Z" fill="#2162C1"/>
<path d="M34.986 169.106C40.1681 169.106 44.3691 164.905 44.3691 159.723C44.3691 154.54 40.1681 150.339 34.986 150.339C29.8038 150.339 25.6028 154.54 25.6028 159.723C25.6028 164.905 29.8038 169.106 34.986 169.106Z" fill="#2162C1"/>
<path d="M126.435 169.106C131.617 169.106 135.818 164.905 135.818 159.723C135.818 154.54 131.617 150.339 126.435 150.339C121.253 150.339 117.052 154.54 117.052 159.723C117.052 164.905 121.253 169.106 126.435 169.106Z" fill="#2162C1"/>
<path d="M80.7103 169.106C85.8925 169.106 90.0935 164.905 90.0935 159.723C90.0935 154.54 85.8925 150.339 80.7103 150.339C75.5281 150.339 71.3271 154.54 71.3271 159.723C71.3271 164.905 75.5281 169.106 80.7103 169.106Z" fill="#2162C1"/>
<path d="M172.099 169.106C177.282 169.106 181.483 164.905 181.483 159.723C181.483 154.54 177.282 150.339 172.099 150.339C166.917 150.339 162.716 154.54 162.716 159.723C162.716 164.905 166.917 169.106 172.099 169.106Z" fill="#2162C1"/>
<path d="M217.779 169.106C222.961 169.106 227.162 164.905 227.162 159.723C227.162 154.54 222.961 150.339 217.779 150.339C212.597 150.339 208.396 154.54 208.396 159.723C208.396 164.905 212.597 169.106 217.779 169.106Z" fill="#2162C1"/>
<path d="M11.1407 201.545C16.3229 201.545 20.5239 197.344 20.5239 192.162C20.5239 186.979 16.3229 182.778 11.1407 182.778C5.95856 182.778 1.75757 186.979 1.75757 192.162C1.75757 197.344 5.95856 201.545 11.1407 201.545Z" fill="#2162C1"/>
<path d="M240.85 201.545C246.032 201.545 250.233 197.344 250.233 192.162C250.233 186.979 246.032 182.778 240.85 182.778C235.668 182.778 231.467 186.979 231.467 192.162C231.467 197.344 235.668 201.545 240.85 201.545Z" fill="#2162C1"/>
<path d="M102.589 201.545C107.772 201.545 111.973 197.344 111.973 192.162C111.973 186.979 107.772 182.778 102.589 182.778C97.4073 182.778 93.2063 186.979 93.2063 192.162C93.2063 197.344 97.4073 201.545 102.589 201.545Z" fill="#2162C1"/>
<path d="M56.8651 201.545C62.0473 201.545 66.2483 197.344 66.2483 192.162C66.2483 186.979 62.0473 182.778 56.8651 182.778C51.6829 182.778 47.4819 186.979 47.4819 192.162C47.4819 197.344 51.6829 201.545 56.8651 201.545Z" fill="#2162C1"/>
<path d="M148.269 201.545C153.451 201.545 157.652 197.344 157.652 192.162C157.652 186.979 153.451 182.778 148.269 182.778C143.087 182.778 138.886 186.979 138.886 192.162C138.886 197.344 143.087 201.545 148.269 201.545Z" fill="#2162C1"/>
<path d="M193.934 201.545C199.116 201.545 203.317 197.344 203.317 192.162C203.317 186.979 199.116 182.778 193.934 182.778C188.752 182.778 184.551 186.979 184.551 192.162C184.551 197.344 188.752 201.545 193.934 201.545Z" fill="#2162C1"/>
<path d="M34.986 239.375C40.1681 239.375 44.3691 235.174 44.3691 229.992C44.3691 224.81 40.1681 220.609 34.986 220.609C29.8038 220.609 25.6028 224.81 25.6028 229.992C25.6028 235.174 29.8038 239.375 34.986 239.375Z" fill="#2162C1"/>
<path d="M126.435 239.375C131.617 239.375 135.818 235.174 135.818 229.992C135.818 224.81 131.617 220.609 126.435 220.609C121.253 220.609 117.052 224.81 117.052 229.992C117.052 235.174 121.253 239.375 126.435 239.375Z" fill="#2162C1"/>
<path d="M80.7103 239.375C85.8925 239.375 90.0935 235.174 90.0935 229.992C90.0935 224.81 85.8925 220.609 80.7103 220.609C75.5281 220.609 71.3271 224.81 71.3271 229.992C71.3271 235.174 75.5281 239.375 80.7103 239.375Z" fill="#2162C1"/>
<path d="M172.099 239.375C177.282 239.375 181.483 235.174 181.483 229.992C181.483 224.81 177.282 220.609 172.099 220.609C166.917 220.609 162.716 224.81 162.716 229.992C162.716 235.174 166.917 239.375 172.099 239.375Z" fill="#2162C1"/>
<path d="M217.779 239.375C222.961 239.375 227.162 235.174 227.162 229.992C227.162 224.81 222.961 220.609 217.779 220.609C212.597 220.609 208.396 224.81 208.396 229.992C208.396 235.174 212.597 239.375 217.779 239.375Z" fill="#2162C1"/>
<path d="M11.1407 271.829C16.3229 271.829 20.5239 267.628 20.5239 262.446C20.5239 257.264 16.3229 253.063 11.1407 253.063C5.95856 253.063 1.75757 257.264 1.75757 262.446C1.75757 267.628 5.95856 271.829 11.1407 271.829Z" fill="#2162C1"/>
<path d="M240.85 271.829C246.032 271.829 250.233 267.628 250.233 262.446C250.233 257.264 246.032 253.063 240.85 253.063C235.668 253.063 231.467 257.264 231.467 262.446C231.467 267.628 235.668 271.829 240.85 271.829Z" fill="#2162C1"/>
<path d="M102.589 271.829C107.772 271.829 111.973 267.628 111.973 262.446C111.973 257.264 107.772 253.063 102.589 253.063C97.4073 253.063 93.2063 257.264 93.2063 262.446C93.2063 267.628 97.4073 271.829 102.589 271.829Z" fill="#2162C1"/>
<path d="M56.8651 271.829C62.0473 271.829 66.2483 267.628 66.2483 262.446C66.2483 257.264 62.0473 253.063 56.8651 253.063C51.6829 253.063 47.4819 257.264 47.4819 262.446C47.4819 267.628 51.6829 271.829 56.8651 271.829Z" fill="#2162C1"/>
<path d="M148.269 271.829C153.451 271.829 157.652 267.628 157.652 262.446C157.652 257.264 153.451 253.063 148.269 253.063C143.087 253.063 138.886 257.264 138.886 262.446C138.886 267.628 143.087 271.829 148.269 271.829Z" fill="#2162C1"/>
<path d="M193.934 271.829C199.116 271.829 203.317 267.628 203.317 262.446C203.317 257.264 199.116 253.063 193.934 253.063C188.752 253.063 184.551 257.264 184.551 262.446C184.551 267.628 188.752 271.829 193.934 271.829Z" fill="#2162C1"/>
<path d="M34.986 309.66C40.1681 309.66 44.3691 305.459 44.3691 300.277C44.3691 295.094 40.1681 290.893 34.986 290.893C29.8038 290.893 25.6028 295.094 25.6028 300.277C25.6028 305.459 29.8038 309.66 34.986 309.66Z" fill="#2162C1"/>
<path d="M126.435 309.66C131.617 309.66 135.818 305.459 135.818 300.277C135.818 295.094 131.617 290.893 126.435 290.893C121.253 290.893 117.052 295.094 117.052 300.277C117.052 305.459 121.253 309.66 126.435 309.66Z" fill="#2162C1"/>
<path d="M80.7103 309.66C85.8925 309.66 90.0935 305.459 90.0935 300.277C90.0935 295.094 85.8925 290.893 80.7103 290.893C75.5281 290.893 71.3271 295.094 71.3271 300.277C71.3271 305.459 75.5281 309.66 80.7103 309.66Z" fill="#2162C1"/>
<path d="M172.099 309.66C177.282 309.66 181.483 305.459 181.483 300.277C181.483 295.094 177.282 290.893 172.099 290.893C166.917 290.893 162.716 295.094 162.716 300.277C162.716 305.459 166.917 309.66 172.099 309.66Z" fill="#2162C1"/>
<path d="M217.779 309.66C222.961 309.66 227.162 305.459 227.162 300.277C227.162 295.094 222.961 290.893 217.779 290.893C212.597 290.893 208.396 295.094 208.396 300.277C208.396 305.459 212.597 309.66 217.779 309.66Z" fill="#2162C1"/>
<path d="M11.1407 342.099C16.3229 342.099 20.5239 337.898 20.5239 332.716C20.5239 327.533 16.3229 323.332 11.1407 323.332C5.95856 323.332 1.75757 327.533 1.75757 332.716C1.75757 337.898 5.95856 342.099 11.1407 342.099Z" fill="#2162C1"/>
<path d="M240.85 342.099C246.032 342.099 250.233 337.898 250.233 332.716C250.233 327.533 246.032 323.332 240.85 323.332C235.668 323.332 231.467 327.533 231.467 332.716C231.467 337.898 235.668 342.099 240.85 342.099Z" fill="#2162C1"/>
<path d="M102.589 342.099C107.772 342.099 111.973 337.898 111.973 332.716C111.973 327.533 107.772 323.332 102.589 323.332C97.4073 323.332 93.2063 327.533 93.2063 332.716C93.2063 337.898 97.4073 342.099 102.589 342.099Z" fill="#2162C1"/>
<path d="M56.8651 342.099C62.0473 342.099 66.2483 337.898 66.2483 332.716C66.2483 327.533 62.0473 323.332 56.8651 323.332C51.6829 323.332 47.4819 327.533 47.4819 332.716C47.4819 337.898 51.6829 342.099 56.8651 342.099Z" fill="#2162C1"/>
<path d="M148.269 342.099C153.451 342.099 157.652 337.898 157.652 332.716C157.652 327.533 153.451 323.332 148.269 323.332C143.087 323.332 138.886 327.533 138.886 332.716C138.886 337.898 143.087 342.099 148.269 342.099Z" fill="#2162C1"/>
<path d="M193.934 342.099C199.116 342.099 203.317 337.898 203.317 332.716C203.317 327.533 199.116 323.332 193.934 323.332C188.752 323.332 184.551 327.533 184.551 332.716C184.551 337.898 188.752 342.099 193.934 342.099Z" fill="#2162C1"/>
<path d="M227.922 9.36828C236.456 9.36828 243.411 16.3089 243.411 24.858V326.669C243.411 335.203 236.471 342.158 227.922 342.158H24.8282C16.294 342.158 9.3385 335.218 9.3385 326.669V24.8431C9.3385 16.3089 16.2791 9.35339 24.8282 9.35339H227.922M227.922 0H24.8282C11.1258 0.0148939 0 11.1407 0 24.8431V326.669C0 340.386 11.1258 351.497 24.8282 351.497H227.922C241.639 351.497 252.75 340.371 252.75 326.669V24.8431C252.75 11.1258 241.624 0.0148939 227.922 0.0148939V0Z" fill="#F7A81B"/>
<path d="M203.645 182.883C211.762 182.883 217.764 178.772 217.764 178.772V172.755C217.764 172.755 211.762 168.644 203.645 168.644C203.466 166.618 203.198 164.623 202.855 162.642C210.704 160.527 215.426 155.016 215.426 155.016C215.039 153.571 214.264 150.652 213.862 149.207C213.862 149.207 207.011 146.78 199.177 148.88C198.477 146.973 197.702 145.112 196.853 143.28C203.883 139.214 207.026 132.66 207.026 132.66C206.266 131.364 204.762 128.743 204.017 127.447C204.017 127.447 196.764 126.881 189.734 130.947C188.572 129.294 187.336 127.701 186.04 126.137C191.789 120.403 193.115 113.239 193.115 113.239C192.057 112.181 189.927 110.051 188.855 108.979C188.855 108.979 181.706 110.319 175.957 116.054C174.408 114.773 172.814 113.536 171.161 112.375C175.212 105.33 174.646 98.0914 174.646 98.0914C173.35 97.3467 170.744 95.8424 169.448 95.0828C169.448 95.0828 162.895 98.2106 158.829 105.241C157.012 104.392 155.135 103.617 153.244 102.917C155.344 95.0828 152.916 88.2316 152.916 88.2316C151.471 87.8444 148.552 87.055 147.107 86.6678C147.107 86.6678 141.582 91.3892 139.482 99.2383C137.501 98.8957 135.505 98.6425 133.479 98.4489C133.479 90.3168 129.354 84.3294 129.354 84.3294H123.352C123.352 84.3294 119.226 90.3168 119.226 98.4489C117.2 98.6425 115.19 98.8957 113.224 99.2383C111.124 91.3892 105.598 86.6678 105.598 86.6678C104.153 87.055 101.234 87.8295 99.7893 88.2316C99.7893 88.2316 97.3616 95.0828 99.4617 102.917C97.5552 103.617 95.6935 104.392 93.8764 105.241C89.8104 98.2106 83.2571 95.0828 83.2571 95.0828C81.9613 95.8275 79.3549 97.3318 78.0591 98.0914C78.0591 98.0914 77.4931 105.345 81.5443 112.375C79.891 113.536 78.2974 114.773 76.7484 116.054C70.9994 110.319 63.8503 108.979 63.8503 108.979C62.7928 110.036 60.663 112.166 59.5906 113.239C59.5906 113.239 60.9162 120.388 66.6652 126.137C65.3844 127.686 64.1482 129.279 62.9715 130.947C55.9416 126.881 48.6883 127.447 48.6883 127.447C47.9436 128.743 46.4244 131.364 45.6797 132.66C45.6797 132.66 48.8223 139.214 55.8522 143.28C55.0033 145.097 54.2288 146.973 53.5288 148.88C45.6797 146.78 38.8434 149.207 38.8434 149.207C38.4561 150.652 37.6668 153.571 37.2795 155.016C37.2795 155.016 42.0009 160.542 49.85 162.642C49.5074 164.623 49.2393 166.618 49.0606 168.644C40.9434 168.644 34.9412 172.755 34.9412 172.755V178.772C34.9412 178.772 40.9434 182.883 49.0606 182.883C49.2393 184.908 49.5074 186.904 49.85 188.885C42.0009 190.985 37.2795 196.511 37.2795 196.511C37.6668 197.955 38.4412 200.874 38.8434 202.319C38.8434 202.319 45.6946 204.747 53.5288 202.647C54.2288 204.553 55.0033 206.415 55.8522 208.247C48.8223 212.298 45.6797 218.866 45.6797 218.866C46.4244 220.162 47.9436 222.769 48.6883 224.064C48.6883 224.064 55.9416 224.63 62.9715 220.579C64.1333 222.232 65.3695 223.826 66.6652 225.375C60.9162 231.124 59.5906 238.273 59.5906 238.273C60.6481 239.331 62.7779 241.46 63.8503 242.518C63.8503 242.518 70.9994 241.192 76.7484 235.443C78.2974 236.739 79.891 237.96 81.5443 239.137C77.4931 246.167 78.0591 253.42 78.0591 253.42C79.3549 254.165 81.9613 255.669 83.2571 256.429C83.2571 256.429 89.8104 253.286 93.8764 246.271C95.6935 247.12 97.5701 247.895 99.4617 248.595C97.3765 256.444 99.7893 263.28 99.7893 263.28C101.234 263.667 104.153 264.442 105.598 264.844C105.598 264.844 111.124 260.122 113.224 252.273C115.19 252.616 117.2 252.869 119.226 253.063C119.226 261.195 123.352 267.182 123.352 267.182H129.354C129.354 267.182 133.479 261.195 133.479 253.063C135.505 252.884 137.516 252.616 139.482 252.273C141.582 260.122 147.107 264.844 147.107 264.844C148.552 264.457 151.471 263.667 152.916 263.28C152.916 263.28 155.329 256.429 153.244 248.595C155.15 247.895 157.012 247.12 158.829 246.271C162.895 253.301 169.448 256.429 169.448 256.429C170.744 255.684 173.35 254.18 174.646 253.42C174.646 253.42 175.212 246.167 171.161 239.137C172.814 237.975 174.408 236.739 175.957 235.443C181.706 241.192 188.855 242.518 188.855 242.518C189.913 241.46 192.057 239.331 193.115 238.273C193.115 238.273 191.789 231.124 186.04 225.375C187.321 223.826 188.557 222.232 189.734 220.579C196.764 224.645 204.017 224.064 204.017 224.064C204.762 222.769 206.281 220.162 207.026 218.866C207.026 218.866 203.883 212.313 196.853 208.247C197.702 206.415 198.477 204.553 199.177 202.647C207.026 204.747 213.862 202.319 213.862 202.319C214.249 200.874 215.039 197.955 215.426 196.511C215.426 196.511 210.704 190.985 202.855 188.885C203.198 186.904 203.466 184.908 203.645 182.883ZM126.375 244.022C88.6785 244.022 58.131 213.46 58.131 175.763C61.7204 85.238 191.044 85.2529 194.634 175.763C194.634 213.46 164.086 244.022 126.39 244.022H126.375Z" fill="#F7A81B"/>
<path d="M127.567 115.368C93.2956 114.713 65.3546 142.624 65.995 176.895C70.9547 256.861 184.923 254.865 186.77 174.631C186.189 142.341 159.857 115.979 127.567 115.368ZM166.931 144.054C128.088 163.044 137.084 167.259 133.509 124.781C147.048 126.658 158.888 133.777 166.931 144.054ZM119.211 124.796C116.232 167.944 124.364 162.21 85.8189 144.099C93.8467 133.837 105.687 126.688 119.211 124.796ZM78.6847 195.051C73.725 183.3 73.7101 168.242 78.6698 156.461C114.445 180.44 113.581 170.908 78.6847 195.051ZM85.8487 207.443C124.692 188.453 115.696 184.238 119.271 226.715C105.732 224.839 93.8914 217.719 85.8487 207.443ZM119.092 190.508C108.1 185.683 106.834 168.674 116.962 162.24C120.998 159.022 125.422 165.874 120.73 168.167C113.983 173.172 116.768 184.163 125.332 185.146C134.954 186.144 139.616 173.931 132.109 168.227C127.477 166.216 131.32 159.246 135.49 162.046H135.52C152.335 173.187 137.218 199.549 119.062 190.508H119.092ZM133.569 226.7C136.548 183.568 128.416 189.272 166.961 207.398C158.933 217.66 147.092 224.809 133.569 226.7ZM148.537 178.385C146.75 177.223 146.735 174.602 148.507 173.41L174.095 156.431V156.401C179.055 168.167 179.07 183.225 174.11 195.006L148.537 178.385Z" fill="#F7A81B"/>
</svg>
