<svg width="273" height="363" viewBox="0 0 273 363" fill="none" xmlns="http://www.w3.org/2000/svg">
<path d="M36.4077 20.4984C42.0857 20.4984 46.6887 15.9096 46.6887 10.2492C46.6887 4.58872 42.0857 0 36.4077 0C30.7297 0 26.1267 4.58872 26.1267 10.2492C26.1267 15.9096 30.7297 20.4984 36.4077 20.4984Z" fill="#F5F5F5"/>
<path d="M136.59 20.4984C142.268 20.4984 146.871 15.9096 146.871 10.2492C146.871 4.58872 142.268 0 136.59 0C130.912 0 126.309 4.58872 126.309 10.2492C126.309 15.9096 130.912 20.4984 136.59 20.4984Z" fill="#F5F5F5"/>
<path d="M86.507 20.4984C92.1851 20.4984 96.788 15.9096 96.788 10.2492C96.788 4.58872 92.1851 0 86.507 0C80.829 0 76.2261 4.58872 76.2261 10.2492C76.2261 15.9096 80.829 20.4984 86.507 20.4984Z" fill="#F5F5F5"/>
<path d="M186.64 20.4984C192.319 20.4984 196.921 15.9096 196.921 10.2492C196.921 4.58872 192.319 0 186.64 0C180.962 0 176.359 4.58872 176.359 10.2492C176.359 15.9096 180.962 20.4984 186.64 20.4984Z" fill="#F5F5F5"/>
<path d="M236.675 20.4984C242.353 20.4984 246.956 15.9096 246.956 10.2492C246.956 4.58872 242.353 0 236.675 0C230.997 0 226.394 4.58872 226.394 10.2492C226.394 15.9096 230.997 20.4984 236.675 20.4984Z" fill="#F5F5F5"/>
<path d="M10.281 55.9475C15.959 55.9475 20.5619 51.3588 20.5619 45.6983C20.5619 40.0379 15.959 35.4492 10.281 35.4492C4.60295 35.4492 0 40.0379 0 45.6983C0 51.3588 4.60295 55.9475 10.281 55.9475Z" fill="#F5F5F5"/>
<path d="M261.969 55.9475C267.647 55.9475 272.25 51.3588 272.25 45.6983C272.25 40.0379 267.647 35.4492 261.969 35.4492C256.291 35.4492 251.688 40.0379 251.688 45.6983C251.688 51.3588 256.291 55.9475 261.969 55.9475Z" fill="#F5F5F5"/>
<path d="M110.48 55.9475C116.158 55.9475 120.761 51.3588 120.761 45.6983C120.761 40.0379 116.158 35.4492 110.48 35.4492C104.802 35.4492 100.199 40.0379 100.199 45.6983C100.199 51.3588 104.802 55.9475 110.48 55.9475Z" fill="#F5F5F5"/>
<path d="M60.3803 55.9475C66.0584 55.9475 70.6613 51.3588 70.6613 45.6983C70.6613 40.0379 66.0584 35.4492 60.3803 35.4492C54.7023 35.4492 50.0994 40.0379 50.0994 45.6983C50.0994 51.3588 54.7023 55.9475 60.3803 55.9475Z" fill="#F5F5F5"/>
<path d="M160.514 55.9475C166.192 55.9475 170.795 51.3588 170.795 45.6983C170.795 40.0379 166.192 35.4492 160.514 35.4492C154.836 35.4492 150.233 40.0379 150.233 45.6983C150.233 51.3588 154.836 55.9475 160.514 55.9475Z" fill="#F5F5F5"/>
<path d="M210.564 55.9475C216.242 55.9475 220.845 51.3588 220.845 45.6983C220.845 40.0379 216.242 35.4492 210.564 35.4492C204.886 35.4492 200.283 40.0379 200.283 45.6983C200.283 51.3588 204.886 55.9475 210.564 55.9475Z" fill="#F5F5F5"/>
<path d="M36.4077 97.2696C42.0857 97.2696 46.6887 92.6809 46.6887 87.0204C46.6887 81.36 42.0857 76.7713 36.4077 76.7713C30.7297 76.7713 26.1267 81.36 26.1267 87.0204C26.1267 92.6809 30.7297 97.2696 36.4077 97.2696Z" fill="#F5F5F5"/>
<path d="M136.59 97.2696C142.268 97.2696 146.871 92.6809 146.871 87.0204C146.871 81.36 142.268 76.7713 136.59 76.7713C130.912 76.7713 126.309 81.36 126.309 87.0204C126.309 92.6809 130.912 97.2696 136.59 97.2696Z" fill="#F5F5F5"/>
<path d="M86.507 97.2696C92.1851 97.2696 96.788 92.6809 96.788 87.0204C96.788 81.36 92.1851 76.7713 86.507 76.7713C80.829 76.7713 76.2261 81.36 76.2261 87.0204C76.2261 92.6809 80.829 97.2696 86.507 97.2696Z" fill="#F5F5F5"/>
<path d="M186.64 97.2696C192.319 97.2696 196.921 92.6809 196.921 87.0204C196.921 81.36 192.319 76.7713 186.64 76.7713C180.962 76.7713 176.359 81.36 176.359 87.0204C176.359 92.6809 180.962 97.2696 186.64 97.2696Z" fill="#F5F5F5"/>
<path d="M236.675 97.2696C242.353 97.2696 246.956 92.6809 246.956 87.0204C246.956 81.36 242.353 76.7713 236.675 76.7713C230.997 76.7713 226.394 81.36 226.394 87.0204C226.394 92.6809 230.997 97.2696 236.675 97.2696Z" fill="#F5F5F5"/>
<path d="M10.281 132.703C15.959 132.703 20.5619 128.114 20.5619 122.453C20.5619 116.793 15.959 112.204 10.281 112.204C4.60295 112.204 0 116.793 0 122.453C0 128.114 4.60295 132.703 10.281 132.703Z" fill="#F5F5F5"/>
<path d="M261.969 132.703C267.647 132.703 272.25 128.114 272.25 122.453C272.25 116.793 267.647 112.204 261.969 112.204C256.291 112.204 251.688 116.793 251.688 122.453C251.688 128.114 256.291 132.703 261.969 132.703Z" fill="#F5F5F5"/>
<path d="M110.48 132.703C116.158 132.703 120.761 128.114 120.761 122.453C120.761 116.793 116.158 112.204 110.48 112.204C104.802 112.204 100.199 116.793 100.199 122.453C100.199 128.114 104.802 132.703 110.48 132.703Z" fill="#F5F5F5"/>
<path d="M60.3803 132.703C66.0584 132.703 70.6613 128.114 70.6613 122.453C70.6613 116.793 66.0584 112.204 60.3803 112.204C54.7023 112.204 50.0994 116.793 50.0994 122.453C50.0994 128.114 54.7023 132.703 60.3803 132.703Z" fill="#F5F5F5"/>
<path d="M160.514 132.703C166.192 132.703 170.795 128.114 170.795 122.453C170.795 116.793 166.192 112.204 160.514 112.204C154.836 112.204 150.233 116.793 150.233 122.453C150.233 128.114 154.836 132.703 160.514 132.703Z" fill="#F5F5F5"/>
<path d="M210.564 132.703C216.242 132.703 220.845 128.114 220.845 122.453C220.845 116.793 216.242 112.204 210.564 112.204C204.886 112.204 200.283 116.793 200.283 122.453C200.283 128.114 204.886 132.703 210.564 132.703Z" fill="#F5F5F5"/>
<path d="M36.4077 174.025C42.0857 174.025 46.6887 169.436 46.6887 163.775C46.6887 158.115 42.0857 153.526 36.4077 153.526C30.7297 153.526 26.1267 158.115 26.1267 163.775C26.1267 169.436 30.7297 174.025 36.4077 174.025Z" fill="#F5F5F5"/>
<path d="M136.59 174.025C142.268 174.025 146.871 169.436 146.871 163.775C146.871 158.115 142.268 153.526 136.59 153.526C130.912 153.526 126.309 158.115 126.309 163.775C126.309 169.436 130.912 174.025 136.59 174.025Z" fill="#F5F5F5"/>
<path d="M86.507 174.025C92.1851 174.025 96.788 169.436 96.788 163.775C96.788 158.115 92.1851 153.526 86.507 153.526C80.829 153.526 76.2261 158.115 76.2261 163.775C76.2261 169.436 80.829 174.025 86.507 174.025Z" fill="#F5F5F5"/>
<path d="M186.64 174.025C192.319 174.025 196.921 169.436 196.921 163.775C196.921 158.115 192.319 153.526 186.64 153.526C180.962 153.526 176.359 158.115 176.359 163.775C176.359 169.436 180.962 174.025 186.64 174.025Z" fill="#F5F5F5"/>
<path d="M236.675 174.025C242.353 174.025 246.956 169.436 246.956 163.775C246.956 158.115 242.353 153.526 236.675 153.526C230.997 153.526 226.394 158.115 226.394 163.775C226.394 169.436 230.997 174.025 236.675 174.025Z" fill="#F5F5F5"/>
<path d="M10.281 209.474C15.959 209.474 20.5619 204.885 20.5619 199.225C20.5619 193.564 15.959 188.975 10.281 188.975C4.60295 188.975 0 193.564 0 199.225C0 204.885 4.60295 209.474 10.281 209.474Z" fill="#F5F5F5"/>
<path d="M261.969 209.474C267.647 209.474 272.25 204.885 272.25 199.225C272.25 193.564 267.647 188.975 261.969 188.975C256.291 188.975 251.688 193.564 251.688 199.225C251.688 204.885 256.291 209.474 261.969 209.474Z" fill="#F5F5F5"/>
<path d="M110.48 209.474C116.158 209.474 120.761 204.885 120.761 199.225C120.761 193.564 116.158 188.975 110.48 188.975C104.802 188.975 100.199 193.564 100.199 199.225C100.199 204.885 104.802 209.474 110.48 209.474Z" fill="#F5F5F5"/>
<path d="M60.3803 209.474C66.0584 209.474 70.6613 204.885 70.6613 199.225C70.6613 193.564 66.0584 188.975 60.3803 188.975C54.7023 188.975 50.0994 193.564 50.0994 199.225C50.0994 204.885 54.7023 209.474 60.3803 209.474Z" fill="#F5F5F5"/>
<path d="M160.514 209.474C166.192 209.474 170.795 204.885 170.795 199.225C170.795 193.564 166.192 188.975 160.514 188.975C154.836 188.975 150.233 193.564 150.233 199.225C150.233 204.885 154.836 209.474 160.514 209.474Z" fill="#F5F5F5"/>
<path d="M210.564 209.474C216.242 209.474 220.845 204.885 220.845 199.225C220.845 193.564 216.242 188.975 210.564 188.975C204.886 188.975 200.283 193.564 200.283 199.225C200.283 204.885 204.886 209.474 210.564 209.474Z" fill="#F5F5F5"/>
<path d="M36.4077 250.796C42.0857 250.796 46.6887 246.207 46.6887 240.547C46.6887 234.886 42.0857 230.298 36.4077 230.298C30.7297 230.298 26.1267 234.886 26.1267 240.547C26.1267 246.207 30.7297 250.796 36.4077 250.796Z" fill="#F5F5F5"/>
<path d="M136.59 250.796C142.268 250.796 146.871 246.207 146.871 240.547C146.871 234.886 142.268 230.298 136.59 230.298C130.912 230.298 126.309 234.886 126.309 240.547C126.309 246.207 130.912 250.796 136.59 250.796Z" fill="#F5F5F5"/>
<path d="M86.507 250.796C92.1851 250.796 96.788 246.207 96.788 240.547C96.788 234.886 92.1851 230.298 86.507 230.298C80.829 230.298 76.2261 234.886 76.2261 240.547C76.2261 246.207 80.829 250.796 86.507 250.796Z" fill="#F5F5F5"/>
<path d="M186.64 250.796C192.319 250.796 196.921 246.207 196.921 240.547C196.921 234.886 192.319 230.298 186.64 230.298C180.962 230.298 176.359 234.886 176.359 240.547C176.359 246.207 180.962 250.796 186.64 250.796Z" fill="#F5F5F5"/>
<path d="M236.675 250.796C242.353 250.796 246.956 246.207 246.956 240.547C246.956 234.886 242.353 230.298 236.675 230.298C230.997 230.298 226.394 234.886 226.394 240.547C226.394 246.207 230.997 250.796 236.675 250.796Z" fill="#F5F5F5"/>
<path d="M10.281 286.229C15.959 286.229 20.5619 281.64 20.5619 275.98C20.5619 270.319 15.959 265.73 10.281 265.73C4.60295 265.73 0 270.319 0 275.98C0 281.64 4.60295 286.229 10.281 286.229Z" fill="#F5F5F5"/>
<path d="M261.969 286.229C267.647 286.229 272.25 281.64 272.25 275.98C272.25 270.319 267.647 265.73 261.969 265.73C256.291 265.73 251.688 270.319 251.688 275.98C251.688 281.64 256.291 286.229 261.969 286.229Z" fill="#F5F5F5"/>
<path d="M110.48 286.229C116.158 286.229 120.761 281.64 120.761 275.98C120.761 270.319 116.158 265.73 110.48 265.73C104.802 265.73 100.199 270.319 100.199 275.98C100.199 281.64 104.802 286.229 110.48 286.229Z" fill="#F5F5F5"/>
<path d="M60.3803 286.229C66.0584 286.229 70.6613 281.64 70.6613 275.98C70.6613 270.319 66.0584 265.73 60.3803 265.73C54.7023 265.73 50.0994 270.319 50.0994 275.98C50.0994 281.64 54.7023 286.229 60.3803 286.229Z" fill="#F5F5F5"/>
<path d="M160.514 286.229C166.192 286.229 170.795 281.64 170.795 275.98C170.795 270.319 166.192 265.73 160.514 265.73C154.836 265.73 150.233 270.319 150.233 275.98C150.233 281.64 154.836 286.229 160.514 286.229Z" fill="#F5F5F5"/>
<path d="M210.564 286.229C216.242 286.229 220.845 281.64 220.845 275.98C220.845 270.319 216.242 265.73 210.564 265.73C204.886 265.73 200.283 270.319 200.283 275.98C200.283 281.64 204.886 286.229 210.564 286.229Z" fill="#F5F5F5"/>
<path d="M36.4077 327.551C42.0857 327.551 46.6887 322.962 46.6887 317.302C46.6887 311.641 42.0857 307.052 36.4077 307.052C30.7297 307.052 26.1267 311.641 26.1267 317.302C26.1267 322.962 30.7297 327.551 36.4077 327.551Z" fill="#F5F5F5"/>
<path d="M136.59 327.551C142.268 327.551 146.871 322.962 146.871 317.302C146.871 311.641 142.268 307.052 136.59 307.052C130.912 307.052 126.309 311.641 126.309 317.302C126.309 322.962 130.912 327.551 136.59 327.551Z" fill="#F5F5F5"/>
<path d="M86.507 327.551C92.1851 327.551 96.788 322.962 96.788 317.302C96.788 311.641 92.1851 307.052 86.507 307.052C80.829 307.052 76.2261 311.641 76.2261 317.302C76.2261 322.962 80.829 327.551 86.507 327.551Z" fill="#F5F5F5"/>
<path d="M186.64 327.551C192.319 327.551 196.921 322.962 196.921 317.302C196.921 311.641 192.319 307.052 186.64 307.052C180.962 307.052 176.359 311.641 176.359 317.302C176.359 322.962 180.962 327.551 186.64 327.551Z" fill="#F5F5F5"/>
<path d="M236.675 327.551C242.353 327.551 246.956 322.962 246.956 317.302C246.956 311.641 242.353 307.052 236.675 307.052C230.997 307.052 226.394 311.641 226.394 317.302C226.394 322.962 230.997 327.551 236.675 327.551Z" fill="#F5F5F5"/>
<path d="M10.281 363C15.959 363 20.5619 358.411 20.5619 352.751C20.5619 347.09 15.959 342.502 10.281 342.502C4.60295 342.502 0 347.09 0 352.751C0 358.411 4.60295 363 10.281 363Z" fill="#F5F5F5"/>
<path d="M261.969 363C267.647 363 272.25 358.411 272.25 352.751C272.25 347.09 267.647 342.502 261.969 342.502C256.291 342.502 251.688 347.09 251.688 352.751C251.688 358.411 256.291 363 261.969 363Z" fill="#F5F5F5"/>
<path d="M110.48 363C116.158 363 120.761 358.411 120.761 352.751C120.761 347.09 116.158 342.502 110.48 342.502C104.802 342.502 100.199 347.09 100.199 352.751C100.199 358.411 104.802 363 110.48 363Z" fill="#F5F5F5"/>
<path d="M60.3803 363C66.0584 363 70.6613 358.411 70.6613 352.751C70.6613 347.09 66.0584 342.502 60.3803 342.502C54.7023 342.502 50.0994 347.09 50.0994 352.751C50.0994 358.411 54.7023 363 60.3803 363Z" fill="#F5F5F5"/>
<path d="M160.514 363C166.192 363 170.795 358.411 170.795 352.751C170.795 347.09 166.192 342.502 160.514 342.502C154.836 342.502 150.233 347.09 150.233 352.751C150.233 358.411 154.836 363 160.514 363Z" fill="#F5F5F5"/>
<path d="M210.564 363C216.242 363 220.845 358.411 220.845 352.751C220.845 347.09 216.242 342.502 210.564 342.502C204.886 342.502 200.283 347.09 200.283 352.751C200.283 358.411 204.886 363 210.564 363Z" fill="#F5F5F5"/>
</svg>
