<svg width="75" height="52" viewBox="0 0 75 52" fill="none" xmlns="http://www.w3.org/2000/svg">
<path d="M4.42814 0.75C18.6236 0.75 32.8178 0.75 47.012 0.75C47.0743 0.771192 47.1366 0.79737 47.2002 0.812328C49.6462 1.38076 51.2587 3.657 51.25 6.09404C51.2051 19.562 51.23 33.0299 51.2275 46.499C51.2275 49.5083 48.9883 51.7446 45.9803 51.7483C42.0015 51.7521 38.0215 51.7483 34.0427 51.7483C24.459 51.7483 14.8766 51.7471 5.29293 51.7496C4.53156 51.7496 3.8188 51.5825 3.13594 51.2472C1.56712 50.4768 0.666194 49.1916 0.25 47.5287V4.92974C0.380839 4.52087 0.481773 4.10451 0.669932 3.71309C1.43877 2.10876 2.73096 1.17383 4.42814 0.75ZM35.8396 37.6247C35.8396 34.9384 35.8396 32.2508 35.8396 29.5644C35.8396 28.9902 36.1204 28.7022 36.6819 28.7005C38.7542 28.6993 40.8264 28.6906 42.8987 28.7068C43.356 28.7105 43.5043 28.5497 43.5005 28.096C43.4831 26.0067 43.4943 23.9162 43.4918 21.827C43.4918 21.2074 43.4731 21.1912 42.8389 21.19C40.7006 21.1887 38.561 21.1812 36.4227 21.195C36.0003 21.1975 35.8284 21.0628 35.8333 20.6253C35.8508 19.0995 35.8196 17.5737 35.847 16.0479C35.877 14.4311 36.8825 13.4625 38.4913 13.4538C39.9504 13.4463 41.4096 13.4363 42.8675 13.46C43.3448 13.4675 43.5055 13.3179 43.5005 12.8342C43.4794 10.7612 43.4931 8.68814 43.4906 6.6151C43.4906 5.95691 43.4594 5.92575 42.7766 5.92575C40.9859 5.92326 39.1953 5.92326 37.4047 5.92575C36.7081 5.927 36.0128 5.95442 35.3299 6.11398C31.1879 7.08256 28.3506 10.6415 28.3331 14.8936C28.3256 16.8008 28.3232 18.7081 28.3369 20.6153C28.3394 21.0441 28.1886 21.1999 27.7562 21.1937C26.4465 21.175 25.1369 21.1999 23.8273 21.1812C23.3986 21.175 23.2391 21.3234 23.2429 21.7572C23.2566 23.8801 23.2566 26.003 23.2429 28.1259C23.2404 28.5609 23.4061 28.7093 23.831 28.703C25.0572 28.6856 26.2846 28.6968 27.512 28.6981C28.0577 28.6981 28.3315 28.9769 28.3331 29.5345C28.3331 34.9745 28.3331 40.4145 28.3331 45.8546C28.3331 46.4891 28.3742 46.5314 29.0122 46.5327C31.0508 46.5352 33.0907 46.5352 35.1306 46.5327C35.8072 46.5327 35.8371 46.5015 35.8371 45.8321C35.8383 43.0959 35.8371 40.3585 35.8371 37.6222L35.8396 37.6247Z" fill="#F7A81B"/>
</svg>
