<svg width="60" height="60" viewBox="0 0 60 60" fill="none" xmlns="http://www.w3.org/2000/svg">
<path d="M30 0C13.4317 0 0 13.4317 0 30C0 46.5683 13.4317 60 30 60C46.5683 60 60 46.5683 60 30C60 13.4317 46.5683 0 30 0ZM34.3333 14.8739C34.3972 14.895 34.4556 14.9511 34.5094 14.99C35.2 15.4911 35.7728 16.1222 36.3922 16.7017C37.8544 18.0683 39.3022 19.4506 40.7561 20.8267C40.9544 21.0144 41.1344 21.2194 41.2844 21.45C41.3117 21.4928 41.35 21.5378 41.3689 21.5856H34.3333V14.8739ZM41.8489 42.27C41.8472 44.045 40.35 45.5378 38.5717 45.5394C32.8589 45.5461 27.1472 45.5456 21.435 45.5394C19.64 45.5378 18.1467 44.0444 18.1456 42.2506C18.1406 34.0717 18.1433 25.8922 18.1422 17.7133C18.1422 17.1322 18.3022 16.5956 18.5928 16.0978C19.1133 15.2056 19.9128 14.7 20.8956 14.4556H32.1111V23.8078H41.8528C41.8561 23.8411 41.8578 23.8783 41.8578 23.9194C41.8494 30.0367 41.855 36.1528 41.8489 42.27ZM22.2606 33.4644H37.3672V31.2422H22.2606V33.4644ZM22.2606 28.6211H37.3672V26.3989H22.2606V28.6211ZM22.2606 38.3078H29.8139V36.0856H22.2606V38.3078Z" fill="#F7A81B"/>
</svg>
