<svg width="60" height="60" viewBox="0 0 60 60" fill="none" xmlns="http://www.w3.org/2000/svg">
<path d="M30 0C13.4317 0 0 13.4317 0 30C0 46.5683 13.4317 60 30 60C46.5683 60 60 46.5683 60 30C60 13.4317 46.5683 0 30 0ZM20.6517 17.0961C22.7406 14.8844 25.5867 13.7628 29.1111 13.7628C32.6356 13.7628 35.47 14.885 37.535 17.0978C41.5506 21.4011 41.1256 28.2489 41.1056 28.5383L38.8889 28.3844C38.8928 28.3244 39.2594 22.1939 35.9028 18.6061C34.2756 16.8667 31.9906 15.985 29.1111 15.985C26.2317 15.985 23.9267 16.8694 22.2744 18.6139C18.8739 22.205 19.1661 28.3317 19.1694 28.3928L16.9511 28.5183C16.9344 28.2294 16.5933 21.3928 20.6517 17.0961ZM26.8972 25.8617C26.4539 24.9556 26.5294 24.0694 27.1367 23.2661C27.7556 22.4472 28.6172 22.1406 29.6072 22.3467C30.6161 22.5572 31.2556 23.215 31.5044 24.2189C31.6428 24.7783 31.5794 25.3356 31.3094 25.8439C31.175 26.0972 31.2511 26.1528 31.4861 26.1961C32.9144 26.46 34.2389 26.995 35.4739 27.755C36.1572 28.175 36.7994 28.6506 37.3822 29.2022H20.8094C21.1483 28.8794 21.5133 28.5883 21.8917 28.3139C23.3511 27.2544 24.9617 26.5361 26.7361 26.1994C26.9706 26.155 27.0106 26.0928 26.8972 25.8617ZM48.4322 33.5606C46.1522 35.8417 43.8733 38.1233 41.5878 40.3994C41.4133 40.5728 41.3306 40.7467 41.3361 40.9961C41.3506 41.6778 41.3467 42.3606 41.3394 43.0428C41.3239 44.4722 40.27 45.5394 38.8467 45.5406C32.3444 45.5456 25.8422 45.545 19.34 45.5411C18.2178 45.5406 17.3411 44.8922 16.9772 43.8272C16.9506 43.7494 16.9139 43.675 16.8822 43.5989V37.0856C17.015 36.155 17.1744 35.2311 17.4778 34.3372C17.8294 33.3006 18.305 32.3294 18.9106 31.4244H39.2806C39.7094 32.0911 40.1044 32.7744 40.3917 33.5144C40.4911 33.77 40.5922 33.8144 40.8433 33.7111C42.1244 33.1856 43.4133 32.6794 44.6961 32.1583C44.8894 32.08 45.0622 32.0683 45.2622 32.1367C46.2894 32.4867 47.3206 32.8244 48.3494 33.1683C48.6806 33.2789 48.6861 33.3067 48.4322 33.5606Z" fill="#F7A81B"/>
</svg>
