<svg width="60" height="60" viewBox="0 0 60 60" fill="none" xmlns="http://www.w3.org/2000/svg">
<path d="M24.9572 14.8094H35.0722V16.8761H24.9572V14.8094ZM60 30C60 46.5683 46.5683 60 30 60C13.4317 60 0 46.5683 0 30C0 13.4317 13.4317 0 30 0C46.5683 0 60 13.4317 60 30ZM47.9 28.8861C47.5394 29.2778 47.1383 29.6744 46.695 30.0639C45.1022 31.4633 43.2906 32.4844 41.31 33.0978C39.8344 33.555 38.2667 33.7839 36.6239 33.7839C35.9456 33.7839 35.255 33.745 34.5528 33.6667V36.7478H25.4767V33.6667C24.7744 33.745 24.0833 33.7839 23.4056 33.7839C21.7628 33.7839 20.1956 33.555 18.7194 33.0978C16.7389 32.4844 14.9272 31.4633 13.3344 30.0639C12.8911 29.6744 12.49 29.2778 12.1294 28.8861V44.1372H47.9V28.8861ZM32.3306 34.5256V28.4094H27.6989V34.5256H32.3306ZM47.9 16.8761H37.2944V12.5872H22.735V16.8761H12.1294V25.2278C12.6656 26.0933 13.5594 27.3183 14.8689 28.4533C16.2233 29.6278 17.7589 30.4822 19.4317 30.9922C21.2761 31.5539 23.3061 31.7006 25.4767 31.4294V26.1872H34.5528V31.4294C36.7233 31.7011 38.7528 31.5544 40.5978 30.9922C42.2706 30.4822 43.8061 29.6278 45.1606 28.4533C46.47 27.3183 47.3639 26.0933 47.9 25.2278V16.8761Z" fill="#F7A81B"/>
</svg>
