<svg width="60" height="60" viewBox="0 0 60 60" fill="none" xmlns="http://www.w3.org/2000/svg">
<path d="M30 0C13.4317 0 0 13.4317 0 30C0 46.5683 13.4317 60 30 60C46.5683 60 60 46.5683 60 30C60 13.4317 46.5683 0 30 0ZM28.86 45.1883C26.1972 45.1883 24.3861 43.29 24.3861 40.6933C24.3861 38.0967 26.2411 36.1867 28.8489 36.1761C31.5111 36.1761 33.29 38.02 33.3222 40.6933C33.3222 43.29 31.555 45.1883 28.86 45.1883ZM34.5556 29.0289C33.1261 30.5672 32.4717 32.1606 32.4494 34.0372L32.4389 34.6589H25.5972L25.5756 33.5572C25.51 31.375 26.2083 29.2144 28.0739 27.0211C29.2417 25.6244 30.3983 24.3261 30.3983 23.0711C30.3983 21.8161 29.58 21.0417 27.6594 20.9761C26.23 20.9761 24.5061 21.4672 23.3389 22.2422L21.7017 16.6228C23.3278 15.7389 25.9683 14.8117 29.4378 14.8117C35.5156 14.8117 38.2983 18.0411 38.2983 21.7728C38.2983 25.2861 36.0283 27.4467 34.5556 29.0289Z" fill="#F7A81B"/>
</svg>
