<svg width="60" height="60" viewBox="0 0 60 60" fill="none" xmlns="http://www.w3.org/2000/svg">
<path d="M30 0C13.4317 0 0 13.4317 0 30C0 46.5683 13.4317 60 30 60C46.5683 60 60 46.5683 60 30C60 13.4317 46.5683 0 30 0ZM31.9933 41.5517V45.4244H27.685V41.9022C25.0144 41.7694 22.4294 41.05 20.9717 40.2928L22.1928 35.0561C23.9067 35.8894 26.255 36.7228 28.8683 36.7228C30.7906 36.7228 32.135 36.1739 32.135 34.9617C32.135 33.7494 31.0272 33.0678 28.2056 32.2061C24.0678 30.8994 21.1517 28.9394 21.1517 25.1233C21.1517 21.6767 23.5378 18.9594 27.8556 18.0883V14.5756H32.1633V17.7756C34.7772 17.8706 36.5572 18.4006 37.9111 18.9783L36.6894 24.0344C35.6578 23.6083 33.8206 22.7278 30.9611 22.7278C28.7267 22.7278 28.0539 23.5233 28.0539 24.3756C28.0539 25.3033 29.3417 26.0422 32.5233 27.15C37.305 28.7311 39.0283 30.8806 39.0283 34.3461C39.0283 37.8683 36.5383 40.7472 31.9933 41.5517Z" fill="#F7A81B"/>
</svg>
