<svg width="15" height="6" viewBox="0 0 15 6" fill="none" xmlns="http://www.w3.org/2000/svg">
<path d="M7.76581 5.96297C7.63918 5.96297 7.52311 5.94827 7.41759 5.91887C7.31207 5.88947 7.20655 5.83803 7.10103 5.76453L0.83308 1.39904C0.664246 1.28145 0.585106 1.12345 0.595658 0.925014C0.60621 0.726582 0.695903 0.568572 0.864736 0.450983C1.07578 0.303997 1.30265 0.241528 1.54535 0.263576C1.78804 0.285624 2.00436 0.355442 2.1943 0.473031L7.76581 4.35347L13.3373 0.473031C13.5062 0.355442 13.733 0.289298 14.0179 0.2746C14.3028 0.259901 14.5297 0.326045 14.6985 0.473031C14.9096 0.59062 14.9993 0.744955 14.9676 0.936038C14.936 1.12712 14.8357 1.2888 14.6669 1.42109L8.43059 5.76453C8.32507 5.83803 8.21955 5.88947 8.11403 5.91887C8.00851 5.94827 7.89243 5.96297 7.76581 5.96297Z" fill="#F7A81B"/>
</svg>
