<svg width="60" height="60" viewBox="0 0 60 60" fill="none" xmlns="http://www.w3.org/2000/svg">
<path d="M21.7434 29.6622C20.8178 29.5055 19.6634 28.8644 18.68 26.9605C18.0722 25.7833 17.7867 24.6178 17.775 24.5683L18.855 24.3072L19.9345 24.0444C20.1984 25.1217 21.1467 27.4828 22.2461 27.4828C24.1039 27.4828 25.51 26.4317 25.6 26.3628L26.9945 28.0933C26.9345 28.1411 25.8806 28.9761 24.2606 29.4244C24.1522 29.7839 23.9839 30.2278 23.7261 30.6767C22.9172 32.085 21.605 32.8611 20.0322 32.8611V30.6389C20.7845 30.6389 21.3306 30.3272 21.7434 29.6622Z" fill="#F7A81B"/>
<path d="M24.1978 35.5278C23.5078 36.2267 23.2345 37.1533 23.1267 37.7878C23.3 37.8644 23.4761 37.9505 23.6528 38.0478C25.0006 38.7883 26.6078 40.2911 26.6078 43.2428H24.3856C24.3856 41.7483 23.8145 40.6961 22.6395 40.0272C21.6828 39.4822 20.6778 39.4067 20.6678 39.4061L20.7389 38.2972L20.805 37.1878C20.83 37.1894 20.8895 37.1939 20.9761 37.2028C21.1645 36.265 21.5983 35.0089 22.5961 33.9872C23.7283 32.8278 25.2906 32.24 27.2395 32.24V34.4622C25.9189 34.4622 24.8956 34.8205 24.1978 35.5278Z" fill="#F7A81B"/>
<path d="M40.1906 37.9878L40.1011 40.2083C39.9917 40.2067 38.4939 40.2067 37.5178 41.1556C36.9045 41.7511 36.5933 42.6439 36.5933 43.8083H34.3711C34.3711 42.0083 34.9161 40.5728 35.99 39.5417C36.4939 39.0572 37.0595 38.7228 37.6078 38.4928C37.43 37.3817 36.8622 36.5083 35.9128 35.89C35.0117 35.3033 34.1061 35.1589 34.0972 35.1572L34.4183 32.9583C34.5583 32.9789 35.8272 33.1828 37.125 34.0278C38.1822 34.7156 39.4089 35.9367 39.7795 37.9956C40.0167 37.9817 40.1667 37.9867 40.1906 37.9878Z" fill="#F7A81B"/>
<path d="M41.2084 24.6317L40.8017 25.9644C40.3295 27.5128 39.2117 28.7633 37.7339 29.3967C37.46 29.5144 37.1872 29.6106 36.9167 29.6867C36.9456 29.7433 36.9767 29.8 37.0111 29.8561C37.4106 30.5183 37.9722 30.8272 38.7795 30.8272V33.0494C37.1689 33.0494 35.8461 32.2911 35.055 30.9139C34.8328 30.5272 34.6817 30.1439 34.5795 29.8161C32.6078 29.4722 31.5739 28.0928 31.525 28.0261L33.3167 26.7122L33.3111 26.7044C33.37 26.7789 34.1061 27.6711 35.4822 27.6711C35.905 27.6711 36.3684 27.5644 36.8584 27.3544C37.7328 26.9794 38.3956 26.2367 38.6761 25.3161L39.0828 23.9833L41.2084 24.6317Z" fill="#F7A81B"/>
<path d="M30 0C13.4317 0 0 13.4317 0 30C0 46.5683 13.4317 60 30 60C46.5683 60 60 46.5683 60 30C60 13.4317 46.5683 0 30 0ZM28.9244 19.3994C28.4428 19.1906 27.88 19.0483 27.2394 19.0483V21.2706C28.0544 21.2706 28.6406 21.7611 28.9244 22.0633V43.6967C27.81 45.2628 26.65 46.0694 25.4739 46.095C25.4544 46.095 25.435 46.0956 25.415 46.0956C23.3978 46.0956 21.7472 43.8822 21.7322 43.8622L21.5194 43.5689L21.1744 43.4572C21.1656 43.4544 20.2861 43.1578 19.48 42.4222C18.4367 41.47 18.025 40.235 18.2572 38.7511L18.3567 38.1117L17.8494 37.7094C16.71 36.805 16.0833 35.8728 15.9878 34.9372C15.9517 34.5861 15.9961 34.2644 16.0733 33.99C16.8072 34.4211 17.86 34.8394 19.1844 34.8394V32.6172C17.7656 32.6172 16.8539 31.8794 16.5933 31.6378C16.4494 31.3672 16.08 30.6133 15.9444 29.7489C15.6872 28.1111 16.4522 27.4156 17.05 27.0339L17.7261 26.6028L17.53 25.8256C17.2033 24.5306 17.2961 23.48 17.805 22.7022C18.4994 21.6411 19.8122 21.2972 20.1344 21.2272C20.44 21.2372 21.6361 21.3294 22.4556 22.1339C23.0483 22.7156 23.3489 23.5894 23.3489 24.7311H25.5711C25.5711 22.9572 25.0389 21.5422 23.9894 20.5256C22.995 19.5628 21.7628 19.2072 20.9317 19.0778C20.835 18.4433 20.82 17.5828 21.1911 16.9661C21.4561 16.525 21.9078 16.2339 22.5661 16.0789C23.2089 16.3022 24.3817 16.8689 24.6806 17.7428L26.7833 17.0233C26.3739 15.8272 25.4183 15.04 24.555 14.5483C25.0594 14.1739 25.5894 13.9611 26.1406 13.915C27.3161 13.8161 28.3922 14.4617 28.9244 14.8506V19.3994ZM44.0906 35.4489C43.9894 36.2978 43.3861 37.1056 42.2972 37.8517L41.6928 38.2656L41.835 38.9839C42.1217 40.4328 41.7744 41.5667 40.7744 42.4494C39.9828 43.1489 39.0617 43.4261 39.0044 43.4428L38.6739 43.5289L38.4456 43.8017C38.4272 43.8244 36.5067 46.045 34.3672 45.9233C33.2239 45.8583 32.1417 45.1106 31.1467 43.7011V41.0511C31.265 40.7722 31.4989 40.285 31.8578 39.8117C32.4878 38.9817 33.2156 38.5606 34.0222 38.5606V36.3383C32.9717 36.3383 31.9972 36.6911 31.1467 37.37V24.2928C31.435 24.0083 32.0361 23.5561 32.9389 23.5561V21.3339C32.2478 21.3339 31.6506 21.4767 31.1467 21.6833V14.7411C31.4194 14.4794 31.9572 14.0772 32.75 13.9861C33.4828 13.9017 34.3117 14.1039 35.1994 14.5767C34.6239 14.9883 34.04 15.635 33.6456 16.6517L35.7178 17.455C35.9594 16.8322 36.3328 16.4078 36.8283 16.1944C37.0867 16.0828 37.3228 16.0522 37.455 16.0439C38.2256 16.3339 38.7389 16.7572 39.0217 17.3344C39.3156 17.9344 39.3128 18.6078 39.2489 19.0972C38.3656 19.2039 37.0394 19.5361 35.9828 20.5306C34.9133 21.5372 34.3711 22.9506 34.3711 24.7311H36.5933C36.5933 23.5939 36.8967 22.7289 37.495 22.1589C38.3733 21.3222 39.6917 21.2706 40.0122 21.2706C40.345 21.3511 41.7578 21.7511 42.5083 22.8894C43.0083 23.6478 43.1317 24.6322 42.875 25.8144L42.7794 26.2556L43.0183 26.6383C43.8594 27.9872 44.1639 29.2372 43.9228 30.3533C43.7722 31.0494 43.4444 31.4856 43.3467 31.6039C43.1094 31.7911 41.9922 32.6172 40.7583 32.6172V34.8394C41.9761 34.8394 43.0617 34.3828 43.8078 33.9583C44 34.3633 44.1572 34.8872 44.0906 35.4489Z" fill="#F7A81B"/>
</svg>
