<svg width="272" height="363" viewBox="0 0 272 363" fill="none" xmlns="http://www.w3.org/2000/svg">
<path d="M36.285 20.4926C41.9439 20.4926 46.5313 15.9052 46.5313 10.2463C46.5313 4.58743 41.9439 0 36.285 0C30.6261 0 26.0387 4.58743 26.0387 10.2463C26.0387 15.9052 30.6261 20.4926 36.285 20.4926Z" fill="#17478F"/>
<path d="M136.146 20.4926C141.805 20.4926 146.392 15.9052 146.392 10.2463C146.392 4.58743 141.805 0 136.146 0C130.487 0 125.9 4.58743 125.9 10.2463C125.9 15.9052 130.487 20.4926 136.146 20.4926Z" fill="#17478F"/>
<path d="M86.2154 20.4926C91.8743 20.4926 96.4618 15.9052 96.4618 10.2463C96.4618 4.58743 91.8743 0 86.2154 0C80.5565 0 75.9691 4.58743 75.9691 10.2463C75.9691 15.9052 80.5565 20.4926 86.2154 20.4926Z" fill="#17478F"/>
<path d="M186.011 20.4926C191.67 20.4926 196.258 15.9052 196.258 10.2463C196.258 4.58743 191.67 0 186.011 0C180.352 0 175.765 4.58743 175.765 10.2463C175.765 15.9052 180.352 20.4926 186.011 20.4926Z" fill="#17478F"/>
<path d="M235.893 20.4926C241.552 20.4926 246.139 15.9052 246.139 10.2463C246.139 4.58743 241.552 0 235.893 0C230.234 0 225.647 4.58743 225.647 10.2463C225.647 15.9052 230.234 20.4926 235.893 20.4926Z" fill="#17478F"/>
<path d="M10.2463 55.9156C15.9052 55.9156 20.4926 51.3282 20.4926 45.6693C20.4926 40.0104 15.9052 35.423 10.2463 35.423C4.58743 35.423 0 40.0104 0 45.6693C0 51.3282 4.58743 55.9156 10.2463 55.9156Z" fill="#17478F"/>
<path d="M261.086 55.9156C266.745 55.9156 271.332 51.3282 271.332 45.6693C271.332 40.0104 266.745 35.423 261.086 35.423C255.427 35.423 250.84 40.0104 250.84 45.6693C250.84 51.3282 255.427 55.9156 261.086 55.9156Z" fill="#17478F"/>
<path d="M110.107 55.9156C115.766 55.9156 120.354 51.3282 120.354 45.6693C120.354 40.0104 115.766 35.423 110.107 35.423C104.448 35.423 99.861 40.0104 99.861 45.6693C99.861 51.3282 104.448 55.9156 110.107 55.9156Z" fill="#17478F"/>
<path d="M60.1767 55.9156C65.8356 55.9156 70.4231 51.3282 70.4231 45.6693C70.4231 40.0104 65.8356 35.423 60.1767 35.423C54.5179 35.423 49.9304 40.0104 49.9304 45.6693C49.9304 51.3282 54.5179 55.9156 60.1767 55.9156Z" fill="#17478F"/>
<path d="M159.989 55.9156C165.648 55.9156 170.235 51.3282 170.235 45.6693C170.235 40.0104 165.648 35.423 159.989 35.423C154.33 35.423 149.743 40.0104 149.743 45.6693C149.743 51.3282 154.33 55.9156 159.989 55.9156Z" fill="#17478F"/>
<path d="M209.854 55.9156C215.513 55.9156 220.101 51.3282 220.101 45.6693C220.101 40.0104 215.513 35.423 209.854 35.423C204.195 35.423 199.608 40.0104 199.608 45.6693C199.608 51.3282 204.195 55.9156 209.854 55.9156Z" fill="#17478F"/>
<path d="M36.285 97.2261C41.9439 97.2261 46.5313 92.6387 46.5313 86.9798C46.5313 81.321 41.9439 76.7335 36.285 76.7335C30.6261 76.7335 26.0387 81.321 26.0387 86.9798C26.0387 92.6387 30.6261 97.2261 36.285 97.2261Z" fill="#17478F"/>
<path d="M136.146 97.2261C141.805 97.2261 146.392 92.6387 146.392 86.9798C146.392 81.321 141.805 76.7335 136.146 76.7335C130.487 76.7335 125.9 81.321 125.9 86.9798C125.9 92.6387 130.487 97.2261 136.146 97.2261Z" fill="#17478F"/>
<path d="M86.2154 97.2261C91.8743 97.2261 96.4618 92.6387 96.4618 86.9798C96.4618 81.321 91.8743 76.7335 86.2154 76.7335C80.5565 76.7335 75.9691 81.321 75.9691 86.9798C75.9691 92.6387 80.5565 97.2261 86.2154 97.2261Z" fill="#17478F"/>
<path d="M186.011 97.2261C191.67 97.2261 196.258 92.6387 196.258 86.9798C196.258 81.321 191.67 76.7335 186.011 76.7335C180.352 76.7335 175.765 81.321 175.765 86.9798C175.765 92.6387 180.352 97.2261 186.011 97.2261Z" fill="#17478F"/>
<path d="M235.893 97.2261C241.552 97.2261 246.139 92.6387 246.139 86.9798C246.139 81.321 241.552 76.7335 235.893 76.7335C230.234 76.7335 225.647 81.321 225.647 86.9798C225.647 92.6387 230.234 97.2261 235.893 97.2261Z" fill="#17478F"/>
<path d="M10.2463 132.665C15.9052 132.665 20.4926 128.078 20.4926 122.419C20.4926 116.76 15.9052 112.173 10.2463 112.173C4.58743 112.173 0 116.76 0 122.419C0 128.078 4.58743 132.665 10.2463 132.665Z" fill="#17478F"/>
<path d="M261.086 132.665C266.745 132.665 271.332 128.078 271.332 122.419C271.332 116.76 266.745 112.173 261.086 112.173C255.427 112.173 250.84 116.76 250.84 122.419C250.84 128.078 255.427 132.665 261.086 132.665Z" fill="#17478F"/>
<path d="M110.107 132.665C115.766 132.665 120.354 128.078 120.354 122.419C120.354 116.76 115.766 112.173 110.107 112.173C104.448 112.173 99.861 116.76 99.861 122.419C99.861 128.078 104.448 132.665 110.107 132.665Z" fill="#17478F"/>
<path d="M60.1767 132.665C65.8356 132.665 70.4231 128.078 70.4231 122.419C70.4231 116.76 65.8356 112.173 60.1767 112.173C54.5179 112.173 49.9304 116.76 49.9304 122.419C49.9304 128.078 54.5179 132.665 60.1767 132.665Z" fill="#17478F"/>
<path d="M159.989 132.665C165.648 132.665 170.235 128.078 170.235 122.419C170.235 116.76 165.648 112.173 159.989 112.173C154.33 112.173 149.743 116.76 149.743 122.419C149.743 128.078 154.33 132.665 159.989 132.665Z" fill="#17478F"/>
<path d="M209.854 132.665C215.513 132.665 220.101 128.078 220.101 122.419C220.101 116.76 215.513 112.173 209.854 112.173C204.195 112.173 199.608 116.76 199.608 122.419C199.608 128.078 204.195 132.665 209.854 132.665Z" fill="#17478F"/>
<path d="M36.285 173.976C41.9439 173.976 46.5313 169.389 46.5313 163.73C46.5313 158.071 41.9439 153.483 36.285 153.483C30.6261 153.483 26.0387 158.071 26.0387 163.73C26.0387 169.389 30.6261 173.976 36.285 173.976Z" fill="#17478F"/>
<path d="M136.146 173.976C141.805 173.976 146.392 169.389 146.392 163.73C146.392 158.071 141.805 153.483 136.146 153.483C130.487 153.483 125.9 158.071 125.9 163.73C125.9 169.389 130.487 173.976 136.146 173.976Z" fill="#17478F"/>
<path d="M86.2154 173.976C91.8743 173.976 96.4618 169.389 96.4618 163.73C96.4618 158.071 91.8743 153.483 86.2154 153.483C80.5565 153.483 75.9691 158.071 75.9691 163.73C75.9691 169.389 80.5565 173.976 86.2154 173.976Z" fill="#17478F"/>
<path d="M186.011 173.976C191.67 173.976 196.258 169.389 196.258 163.73C196.258 158.071 191.67 153.483 186.011 153.483C180.352 153.483 175.765 158.071 175.765 163.73C175.765 169.389 180.352 173.976 186.011 173.976Z" fill="#17478F"/>
<path d="M235.893 173.976C241.552 173.976 246.139 169.389 246.139 163.73C246.139 158.071 241.552 153.483 235.893 153.483C230.234 153.483 225.647 158.071 225.647 163.73C225.647 169.389 230.234 173.976 235.893 173.976Z" fill="#17478F"/>
<path d="M10.2463 209.399C15.9052 209.399 20.4926 204.812 20.4926 199.153C20.4926 193.494 15.9052 188.906 10.2463 188.906C4.58743 188.906 0 193.494 0 199.153C0 204.812 4.58743 209.399 10.2463 209.399Z" fill="#17478F"/>
<path d="M261.086 209.399C266.745 209.399 271.332 204.812 271.332 199.153C271.332 193.494 266.745 188.906 261.086 188.906C255.427 188.906 250.84 193.494 250.84 199.153C250.84 204.812 255.427 209.399 261.086 209.399Z" fill="#17478F"/>
<path d="M110.107 209.399C115.766 209.399 120.354 204.812 120.354 199.153C120.354 193.494 115.766 188.906 110.107 188.906C104.448 188.906 99.861 193.494 99.861 199.153C99.861 204.812 104.448 209.399 110.107 209.399Z" fill="#17478F"/>
<path d="M60.1767 209.399C65.8356 209.399 70.4231 204.812 70.4231 199.153C70.4231 193.494 65.8356 188.906 60.1767 188.906C54.5179 188.906 49.9304 193.494 49.9304 199.153C49.9304 204.812 54.5179 209.399 60.1767 209.399Z" fill="#17478F"/>
<path d="M159.989 209.399C165.648 209.399 170.235 204.812 170.235 199.153C170.235 193.494 165.648 188.906 159.989 188.906C154.33 188.906 149.743 193.494 149.743 199.153C149.743 204.812 154.33 209.399 159.989 209.399Z" fill="#17478F"/>
<path d="M209.854 209.399C215.513 209.399 220.101 204.812 220.101 199.153C220.101 193.494 215.513 188.906 209.854 188.906C204.195 188.906 199.608 193.494 199.608 199.153C199.608 204.812 204.195 209.399 209.854 209.399Z" fill="#17478F"/>
<path d="M36.285 250.71C41.9439 250.71 46.5313 246.122 46.5313 240.463C46.5313 234.804 41.9439 230.217 36.285 230.217C30.6261 230.217 26.0387 234.804 26.0387 240.463C26.0387 246.122 30.6261 250.71 36.285 250.71Z" fill="#17478F"/>
<path d="M136.146 250.71C141.805 250.71 146.392 246.122 146.392 240.463C146.392 234.804 141.805 230.217 136.146 230.217C130.487 230.217 125.9 234.804 125.9 240.463C125.9 246.122 130.487 250.71 136.146 250.71Z" fill="#17478F"/>
<path d="M86.2154 250.71C91.8743 250.71 96.4618 246.122 96.4618 240.463C96.4618 234.804 91.8743 230.217 86.2154 230.217C80.5565 230.217 75.9691 234.804 75.9691 240.463C75.9691 246.122 80.5565 250.71 86.2154 250.71Z" fill="#17478F"/>
<path d="M186.011 250.71C191.67 250.71 196.258 246.122 196.258 240.463C196.258 234.804 191.67 230.217 186.011 230.217C180.352 230.217 175.765 234.804 175.765 240.463C175.765 246.122 180.352 250.71 186.011 250.71Z" fill="#17478F"/>
<path d="M235.893 250.71C241.552 250.71 246.139 246.122 246.139 240.463C246.139 234.804 241.552 230.217 235.893 230.217C230.234 230.217 225.647 234.804 225.647 240.463C225.647 246.122 230.234 250.71 235.893 250.71Z" fill="#17478F"/>
<path d="M10.2463 286.149C15.9052 286.149 20.4926 281.561 20.4926 275.902C20.4926 270.244 15.9052 265.656 10.2463 265.656C4.58743 265.656 0 270.244 0 275.902C0 281.561 4.58743 286.149 10.2463 286.149Z" fill="#17478F"/>
<path d="M261.086 286.149C266.745 286.149 271.332 281.561 271.332 275.902C271.332 270.244 266.745 265.656 261.086 265.656C255.427 265.656 250.84 270.244 250.84 275.902C250.84 281.561 255.427 286.149 261.086 286.149Z" fill="#17478F"/>
<path d="M110.107 286.149C115.766 286.149 120.354 281.561 120.354 275.902C120.354 270.244 115.766 265.656 110.107 265.656C104.448 265.656 99.861 270.244 99.861 275.902C99.861 281.561 104.448 286.149 110.107 286.149Z" fill="#17478F"/>
<path d="M60.1767 286.149C65.8356 286.149 70.4231 281.561 70.4231 275.902C70.4231 270.244 65.8356 265.656 60.1767 265.656C54.5179 265.656 49.9304 270.244 49.9304 275.902C49.9304 281.561 54.5179 286.149 60.1767 286.149Z" fill="#17478F"/>
<path d="M159.989 286.149C165.648 286.149 170.235 281.561 170.235 275.902C170.235 270.244 165.648 265.656 159.989 265.656C154.33 265.656 149.743 270.244 149.743 275.902C149.743 281.561 154.33 286.149 159.989 286.149Z" fill="#17478F"/>
<path d="M209.854 286.149C215.513 286.149 220.101 281.561 220.101 275.902C220.101 270.244 215.513 265.656 209.854 265.656C204.195 265.656 199.608 270.244 199.608 275.902C199.608 281.561 204.195 286.149 209.854 286.149Z" fill="#17478F"/>
<path d="M36.285 327.459C41.9439 327.459 46.5313 322.872 46.5313 317.213C46.5313 311.554 41.9439 306.967 36.285 306.967C30.6261 306.967 26.0387 311.554 26.0387 317.213C26.0387 322.872 30.6261 327.459 36.285 327.459Z" fill="#17478F"/>
<path d="M136.146 327.459C141.805 327.459 146.392 322.872 146.392 317.213C146.392 311.554 141.805 306.967 136.146 306.967C130.487 306.967 125.9 311.554 125.9 317.213C125.9 322.872 130.487 327.459 136.146 327.459Z" fill="#17478F"/>
<path d="M86.2154 327.459C91.8743 327.459 96.4618 322.872 96.4618 317.213C96.4618 311.554 91.8743 306.967 86.2154 306.967C80.5565 306.967 75.9691 311.554 75.9691 317.213C75.9691 322.872 80.5565 327.459 86.2154 327.459Z" fill="#17478F"/>
<path d="M186.011 327.459C191.67 327.459 196.258 322.872 196.258 317.213C196.258 311.554 191.67 306.967 186.011 306.967C180.352 306.967 175.765 311.554 175.765 317.213C175.765 322.872 180.352 327.459 186.011 327.459Z" fill="#17478F"/>
<path d="M235.893 327.459C241.552 327.459 246.139 322.872 246.139 317.213C246.139 311.554 241.552 306.967 235.893 306.967C230.234 306.967 225.647 311.554 225.647 317.213C225.647 322.872 230.234 327.459 235.893 327.459Z" fill="#17478F"/>
<path d="M10.2463 362.882C15.9052 362.882 20.4926 358.295 20.4926 352.636C20.4926 346.977 15.9052 342.39 10.2463 342.39C4.58743 342.39 0 346.977 0 352.636C0 358.295 4.58743 362.882 10.2463 362.882Z" fill="#17478F"/>
<path d="M261.086 362.882C266.745 362.882 271.332 358.295 271.332 352.636C271.332 346.977 266.745 342.39 261.086 342.39C255.427 342.39 250.84 346.977 250.84 352.636C250.84 358.295 255.427 362.882 261.086 362.882Z" fill="#17478F"/>
<path d="M110.107 362.882C115.766 362.882 120.354 358.295 120.354 352.636C120.354 346.977 115.766 342.39 110.107 342.39C104.448 342.39 99.861 346.977 99.861 352.636C99.861 358.295 104.448 362.882 110.107 362.882Z" fill="#17478F"/>
<path d="M60.1767 362.882C65.8356 362.882 70.4231 358.295 70.4231 352.636C70.4231 346.977 65.8356 342.39 60.1767 342.39C54.5179 342.39 49.9304 346.977 49.9304 352.636C49.9304 358.295 54.5179 362.882 60.1767 362.882Z" fill="#17478F"/>
<path d="M159.989 362.882C165.648 362.882 170.235 358.295 170.235 352.636C170.235 346.977 165.648 342.39 159.989 342.39C154.33 342.39 149.743 346.977 149.743 352.636C149.743 358.295 154.33 362.882 159.989 362.882Z" fill="#17478F"/>
<path d="M209.854 362.882C215.513 362.882 220.101 358.295 220.101 352.636C220.101 346.977 215.513 342.39 209.854 342.39C204.195 342.39 199.608 346.977 199.608 352.636C199.608 358.295 204.195 362.882 209.854 362.882Z" fill="#17478F"/>
</svg>
