<svg width="60" height="60" viewBox="0 0 60 60" fill="none" xmlns="http://www.w3.org/2000/svg">
<path d="M27.9989 22.9361C27.9705 21.97 28.6933 21.2017 29.6644 21.0889C30.5383 20.9867 31.4094 21.6161 31.6216 22.5172C31.6616 22.6894 31.67 22.8755 31.66 23.0533C31.5639 24.7767 31.46 26.5011 31.36 28.2239C31.2877 29.4717 31.2094 30.72 31.155 31.9683C31.1433 32.2422 31.0666 32.3494 30.7866 32.3328C30.47 32.3128 30.1511 32.3283 29.8327 32.3283L29.8316 32.33C29.4922 32.3294 29.1527 32.3222 28.8139 32.3317C28.605 32.3367 28.5161 32.2689 28.5044 32.0422C28.4022 30.0955 28.2889 28.15 28.1783 26.2039C28.1161 25.1144 28.0305 24.0261 27.9989 22.9361Z" fill="#F7A81B"/>
<path d="M31.785 36.375C31.7816 37.4722 30.9244 38.32 29.82 38.3178V38.3167C28.7189 38.3139 27.8705 37.4617 27.8722 36.3578C27.8739 35.2806 28.7272 34.4372 29.8205 34.4339C30.9278 34.4311 31.7883 35.2811 31.785 36.375Z" fill="#F7A81B"/>
<path d="M30 0C13.4317 0 0 13.4317 0 30C0 46.5683 13.4317 60 30 60C46.5683 60 60 46.5683 60 30C60 13.4317 46.5683 0 30 0ZM43.365 41.3111C42.9761 41.4722 42.5717 41.53 42.1533 41.5289C38.0456 41.5256 33.9378 41.5272 29.83 41.5272V41.5283H17.5694C15.8961 41.5283 14.7244 40.5233 14.4894 38.8722C14.3944 38.2033 14.5978 37.5922 14.9339 37.02C15.7867 35.5639 16.6394 34.1078 17.4928 32.6517C20.7433 27.1022 23.9917 21.5517 27.2472 16.0056C28.2211 14.3472 30.2878 13.9694 31.7339 15.1667C32.0683 15.4433 32.2972 15.7989 32.5117 16.1656C36.5717 23.0978 40.6178 30.0378 44.6983 36.9578C45.7383 38.7211 44.9122 40.6706 43.365 41.3111Z" fill="#F7A81B"/>
</svg>
