<svg width="60" height="60" viewBox="0 0 60 60" fill="none" xmlns="http://www.w3.org/2000/svg">
<path d="M30 0C13.4317 0 0 13.4317 0 30C0 46.5683 13.4317 60 30 60C46.5683 60 60 46.5683 60 30C60 13.4317 46.5683 0 30 0ZM26.4 36.3644C26.0711 36.3672 25.9444 36.2706 25.965 35.9306C26.0067 35.2306 25.9444 34.545 25.5933 33.91C24.9889 32.8144 23.7456 32.2067 22.4894 32.4083C21.3083 32.5972 20.295 33.57 20.0717 34.7506C19.9956 35.1528 20.0206 35.565 20.0289 35.9728C20.035 36.2511 19.9344 36.3639 19.6433 36.3628C17.8783 36.3533 16.1133 36.3544 14.3478 36.3611C14.0817 36.3628 13.9761 36.2772 13.98 35.9983C13.9933 35.105 13.9844 34.2117 13.9844 33.3172V33.32C13.9844 32.4372 13.9911 31.555 13.9794 30.6722C13.9761 30.405 14.0583 30.2933 14.3367 30.3033C14.6989 30.3161 15.0633 30.3239 15.4239 30.2439C16.5006 30.0044 17.2272 29.3644 17.6289 28.3444C17.7178 28.1189 17.7983 27.8906 17.8772 27.6617C17.9239 27.5261 17.985 27.3867 17.9417 27.2422C17.6594 26.2933 17.3456 25.3672 16.4228 24.8122C15.8956 24.4944 15.3344 24.3439 14.7217 24.3678C14.5678 24.3739 14.4128 24.3661 14.2589 24.3661C14.0706 24.3661 13.9822 24.285 13.9828 24.0844C13.9867 22.2533 13.9878 20.4222 13.9828 18.5906C13.9828 18.2944 14.1733 18.3222 14.3622 18.3222H19.4589C19.9428 18.3222 19.9639 18.3206 19.9389 17.8344C19.8844 16.8017 20.1233 15.8783 20.9111 15.165C21.8256 14.3372 22.895 14.1094 24.0461 14.5394C25.2089 14.9739 25.8689 15.8522 26.0111 17.095C26.0439 17.3789 26.0628 17.6672 26.0506 17.9528C26.0372 18.2472 26.1506 18.3294 26.4356 18.3272C28.1122 18.3167 29.7894 18.3222 31.4667 18.3222C31.8344 18.3222 32.0189 18.5117 32.0194 18.8906V23.7889C32.0194 24.2811 32.0206 24.2978 32.5056 24.2783C33.5906 24.2361 34.5111 24.5794 35.1844 25.4456C35.9056 26.3728 36.0633 27.4133 35.6044 28.4989C35.1533 29.565 34.3272 30.19 33.1694 30.3461C32.9194 30.38 32.6628 30.4028 32.4117 30.39C32.1061 30.3739 32.0117 30.49 32.0139 30.7911C32.025 32.4789 32.0194 34.1672 32.0194 35.8544C32.0194 36.3572 32.0178 36.3578 31.5294 36.3583C29.82 36.3583 28.11 36.3517 26.4 36.3644ZM47.9 32.0478C47.5728 32.2956 47.3078 32.6078 47.0194 32.895C46.08 33.8267 45.1461 34.7656 44.21 35.7011C43.7406 36.1711 43.7361 36.1756 44.2 36.6333C44.7378 37.1622 45.055 37.7906 45.1661 38.5422C45.4506 40.4711 43.5772 42.2611 41.65 41.8978C40.8922 41.755 40.2778 41.3828 39.7556 40.8283C39.4294 40.4822 39.4206 40.49 39.0944 40.8167C37.885 42.025 36.6722 43.2294 35.4728 44.4472C35.2711 44.6522 35.1556 44.6628 34.9467 44.4517C33.2317 42.72 31.5072 40.9972 29.7772 39.28C29.585 39.0894 29.5894 38.9839 29.7689 38.7756C30.1117 38.3761 30.4961 38.2117 31.0328 38.2417C31.8689 38.2878 32.7089 38.2428 33.5467 38.2594C33.8417 38.2656 33.9222 38.1628 33.9206 37.8772C33.91 36.1133 33.9228 34.3483 33.9089 32.5839C33.9061 32.2739 34.0117 32.145 34.3028 32.05C36.4106 31.3656 37.7667 29.4772 37.755 27.2739C37.7444 25.1333 36.345 23.2461 34.2622 22.5933C33.9867 22.5072 33.8789 22.3739 33.9144 22.1006C33.9228 22.0356 33.9256 21.9667 33.9144 21.9022C33.7317 20.8683 34.0983 20.0789 34.9311 19.4517C35.1761 19.2667 35.2906 19.2667 35.4933 19.4717C36.6956 20.6872 37.9072 21.8928 39.1161 23.1011C39.4211 23.4056 39.4261 23.4094 39.7317 23.0944C40.1733 22.6394 40.64 22.2317 41.26 22.0267C42.5678 21.5944 44.0172 22.0883 44.7778 23.2417C45.535 24.3883 45.4206 25.9333 44.4983 26.9522C44.3056 27.1644 44.1 27.365 43.8944 27.565C43.7878 27.6683 43.765 27.7533 43.8817 27.8678C45.2261 29.1894 46.5244 30.5578 47.9 31.8478V32.0478Z" fill="#F7A81B"/>
</svg>
