<svg width="51" height="52" viewBox="0 0 51 52" fill="none" xmlns="http://www.w3.org/2000/svg">
<path d="M50.9975 26.25C50.9975 31.9739 50.9975 37.6966 50.9975 43.4205C50.9975 47.5595 47.8477 51.1441 43.7414 51.6745C43.3694 51.7223 42.9935 51.7512 42.6152 51.75C31.2 51.7462 19.7849 51.7474 8.36844 51.7474C4.19051 51.7474 0.62845 48.6366 0.0766709 44.4989C0.0276518 44.1269 0 43.751 0 43.3727C0.0037707 31.9576 0.0025138 20.5424 0.0025138 9.12598C0.0025138 4.94302 3.09198 1.39982 7.24352 0.827928C7.60425 0.778909 7.97001 0.75 8.33702 0.75C19.7836 0.753771 31.2302 0.752514 42.6781 0.752514C46.8133 0.752514 50.4118 3.9199 50.9246 8.01614C50.9711 8.38818 51 8.76399 51 9.14232C50.9962 14.8449 50.9975 20.5474 50.9975 26.25ZM25.4824 5.29746C22.594 5.29746 19.7069 5.29244 16.8186 5.30123C16.0556 5.30375 15.2915 5.33266 14.5398 5.47594C9.97728 6.34949 6.88404 8.97766 5.22871 13.3052C4.71463 14.6501 4.55375 16.0653 4.55124 17.4944C4.54244 23.197 4.54747 28.8983 4.54747 34.6008C4.54747 35.3223 4.5726 36.0437 4.6631 36.7602C5.05525 39.8484 6.4655 42.3923 8.82721 44.3984C11.0984 46.3277 13.7668 47.1987 16.7281 47.2012C22.5563 47.205 28.3833 47.2063 34.2116 47.1975C34.9632 47.1975 35.7173 47.1673 36.4589 47.024C41.0202 46.148 44.1147 43.5223 45.77 39.1948C46.2841 37.8487 46.445 36.4346 46.4475 35.0055C46.4563 29.2087 46.455 23.4132 46.4475 17.6163C46.4475 16.8333 46.4199 16.0465 46.2703 15.2747C45.3967 10.7398 42.7836 7.65541 38.4876 5.99379C37.1452 5.47469 35.7299 5.30878 34.3008 5.30249C31.3609 5.28866 28.421 5.29872 25.4811 5.29872L25.4824 5.29746Z" fill="#F7A81B"/>
<path d="M25.5151 8.85195C28.465 8.85195 31.4162 8.84441 34.3662 8.85447C36.797 8.86201 38.8885 9.71041 40.5752 11.4738C41.9151 12.8753 42.6667 14.5558 42.8515 16.4901C42.893 16.9288 42.898 17.3674 42.898 17.8061C42.898 23.5816 42.898 29.3558 42.898 35.1312C42.898 39.4637 39.845 42.9755 35.5564 43.5713C35.1844 43.6228 34.8061 43.6442 34.4303 43.6442C28.4776 43.6492 22.5249 43.6492 16.571 43.6467C12.2799 43.6454 8.74173 40.5459 8.17486 36.2901C8.12836 35.9381 8.10448 35.5812 8.10448 35.2267C8.10071 29.2426 8.09819 23.2585 8.10196 17.2732C8.10448 13.0211 11.2656 9.44269 15.4737 8.92234C15.857 8.87458 16.2429 8.84692 16.6313 8.84692C19.5925 8.85195 22.5525 8.84944 25.5138 8.84944L25.5151 8.85195ZM25.5025 15.5311C19.5649 15.5676 14.8151 20.2885 14.7899 26.2009C14.7648 32.1637 19.5247 36.9437 25.4673 36.96C31.4376 36.9763 36.2012 32.2051 36.2113 26.2676C36.2213 20.3098 31.4451 15.5688 25.5025 15.5311ZM39.2429 14.9102C39.2429 13.4824 38.0853 12.3223 36.6751 12.3361C35.2724 12.3499 34.1236 13.51 34.1236 14.9102C34.1236 16.3066 35.2824 17.4517 36.6939 17.4517C38.1268 17.4517 39.2429 16.338 39.2429 14.909V14.9102Z" fill="#F7A81B"/>
<path d="M25.4925 33.4143C21.5622 33.4143 18.3344 30.169 18.3357 26.2186C18.337 22.2983 21.5911 19.0832 25.5541 19.0857C29.4492 19.0882 32.6656 22.3511 32.6644 26.2965C32.6618 30.1791 29.4027 33.4143 25.4925 33.4143Z" fill="#F7A81B"/>
</svg>
