<svg width="337" height="64" viewBox="0 0 337 64" fill="none" xmlns="http://www.w3.org/2000/svg">
<path d="M0 56.2431C4.30615 51.2241 8.61231 46.2052 12.9168 41.1846C18.882 34.2267 24.8438 27.2655 30.809 20.3059C32.9878 17.7644 35.1799 15.2328 37.3355 12.6716C37.7324 12.2004 38.0612 12.1462 38.6009 12.4105C42.4604 14.3117 46.3281 16.1998 50.2075 18.0616C50.8535 18.3719 50.9232 18.6296 50.5031 19.2059C45.9445 25.4513 41.4092 31.7114 36.8655 37.9683C35.3991 39.9877 33.8946 41.9809 32.4846 44.0364C31.935 44.8376 31.2358 45.2891 30.3523 45.6043C25.5911 47.297 20.8399 49.0126 16.0837 50.7185C11.0934 52.508 6.10467 54.2959 1.11266 56.0806C0.750629 56.2103 0.373654 56.2989 0.00166068 56.4073C0.00166068 56.3531 0.00166068 56.2973 0.00166068 56.2431H0Z" fill="#F7A81B"/>
<path d="M333.105 38.7794C332.637 38.7531 332.148 38.7975 331.703 38.6825C331.027 38.5085 330.692 38.7285 330.426 39.3409C330.17 39.9336 330.297 40.28 330.826 40.6281C331.733 41.2224 332.431 42.0318 333.073 42.9003C333.572 43.5718 333.203 44.0725 332.907 44.6242C332.615 45.1676 332.24 45.5403 331.536 45.45C330.431 45.3088 329.353 45.074 328.345 44.6012C327.872 44.3779 327.532 44.3861 327.224 44.8573C326.929 45.3105 326.484 45.6733 327.017 46.2742C327.769 47.123 328.279 48.1212 328.696 49.1736C328.98 49.8911 328.566 50.3081 328.144 50.7481C327.728 51.1815 327.296 51.5 326.615 51.2505C325.512 50.8466 324.488 50.3081 323.612 49.5446C323.101 49.0981 322.789 49.3805 322.397 49.6612C321.987 49.9551 321.703 50.2063 321.992 50.7957C322.498 51.8317 322.787 52.9382 322.882 54.099C322.951 54.9494 322.315 55.199 321.761 55.5454C321.238 55.8721 320.768 55.8737 320.236 55.4961C319.349 54.864 318.554 54.1466 317.961 53.2502C317.574 52.6657 317.197 52.7314 316.643 52.9546C316.055 53.1911 315.837 53.4964 315.958 54.1351C316.164 55.2137 316.126 56.3006 315.933 57.3891C315.799 58.1443 315.243 58.2954 314.636 58.4497C314.049 58.6008 313.524 58.6664 313.065 58.1082C312.361 57.2512 311.753 56.3433 311.391 55.3008C311.205 54.7655 310.903 54.562 310.34 54.649C309.809 54.7327 309.412 54.8673 309.351 55.5175C309.254 56.5518 308.965 57.5434 308.552 58.5121C308.198 59.3429 307.61 59.5267 306.783 59.5267C305.961 59.5267 305.606 59.0867 305.34 58.4251C304.971 57.5057 304.639 56.5666 304.598 55.5831C304.566 54.8526 304.141 54.7606 303.595 54.6637C302.988 54.5554 302.606 54.7097 302.399 55.3369C302.06 56.3581 301.449 57.2364 300.79 58.0885C300.378 58.6221 299.9 58.6599 299.325 58.4743C298.707 58.274 298.025 58.2199 297.885 57.353C297.714 56.2891 297.653 55.2318 297.845 54.1778C297.958 53.5637 297.82 53.2255 297.208 52.9743C296.623 52.7363 296.281 52.7691 295.919 53.3339C295.338 54.2385 294.527 54.9445 293.65 55.5848C292.853 56.1676 292.264 55.6652 291.608 55.3254C291.01 55.0151 290.935 54.5685 291.027 53.9578C291.186 52.8955 291.417 51.8563 291.898 50.8975C292.244 50.2096 291.751 49.9928 291.352 49.6546C290.929 49.2967 290.586 49.2393 290.13 49.6349C289.248 50.4 288.203 50.8991 287.102 51.2964C286.486 51.5197 286.099 51.2258 285.727 50.8252C285.342 50.4099 284.86 50.0651 285.095 49.3542C285.46 48.2443 286.003 47.233 286.777 46.3694C287.292 45.7948 287.008 45.4254 286.664 44.9509C286.309 44.46 285.968 44.3763 285.413 44.6554C284.42 45.1561 283.344 45.3876 282.225 45.4681C281.459 45.5222 281.154 45.0658 280.84 44.524C280.514 43.9625 280.377 43.4454 280.818 42.8593C281.453 42.0187 282.17 41.2651 283.04 40.6707C283.519 40.344 283.711 40.0222 283.431 39.4493C283.171 38.919 282.974 38.5299 282.218 38.699C281.192 38.9304 280.137 38.8599 279.088 38.7055C278.294 38.5873 278.002 38.1046 277.806 37.4134C277.615 36.737 277.66 36.2018 278.261 35.7421C279.076 35.1182 279.923 34.5272 280.911 34.2481C281.727 34.0166 281.723 33.5372 281.634 32.8887C281.546 32.25 281.228 32.0316 280.589 32.0037C279.531 31.9578 278.535 31.6113 277.562 31.2025C276.951 30.9448 276.776 30.5097 276.813 29.899C276.851 29.2587 276.688 28.6052 277.52 28.2457C278.546 27.8024 279.588 27.4494 280.7 27.3854C281.292 27.3509 281.556 27.0948 281.617 26.5563C281.677 26.0325 281.757 25.5383 281.057 25.2954C280.008 24.9292 279.071 24.3513 278.191 23.6733C277.703 23.2973 277.57 22.8672 277.734 22.3122C277.917 21.6933 277.979 21.0037 278.819 20.828C279.917 20.5982 281.019 20.5686 282.115 20.7558C282.735 20.8609 283.085 20.7263 283.352 20.1369C283.631 19.5228 283.535 19.1583 282.961 18.784C282.102 18.2258 281.438 17.4542 280.788 16.6645C280.225 15.9798 280.476 15.4413 280.847 14.8142C281.227 14.1706 281.688 13.8931 282.474 14.0163C283.522 14.1804 284.543 14.4103 285.488 14.8749C286.076 15.1639 286.348 14.8733 286.637 14.4612C286.916 14.0639 287.307 13.7404 286.815 13.1904C286.043 12.3252 285.5 11.3139 285.083 10.227C284.824 9.55222 285.141 9.14834 285.583 8.7264C286.028 8.30117 286.413 7.87759 287.155 8.14685C288.237 8.53923 289.228 9.07938 290.093 9.80506C290.648 10.2697 290.987 10.0415 291.452 9.71147C291.958 9.35192 291.91 9.00222 291.674 8.52282C291.213 7.58207 290.977 6.57401 290.831 5.53968C290.733 4.83863 291.012 4.42326 291.623 4.08834C292.257 3.74028 292.808 3.44147 293.514 3.97669C294.378 4.63177 295.188 5.33281 295.774 6.23744C296.173 6.85147 296.611 6.68401 297.126 6.46893C297.624 6.26043 297.963 6.06177 297.814 5.39028C297.57 4.29356 297.634 3.1755 297.832 2.06072C297.973 1.26117 298.588 1.14624 299.199 0.959079C299.777 0.781766 300.262 0.811318 300.688 1.31535C301.368 2.11983 301.969 2.9752 302.296 3.97013C302.537 4.70401 302.992 4.8452 303.686 4.76475C304.37 4.68595 304.506 4.27878 304.566 3.69923C304.674 2.66326 305.006 1.68475 305.43 0.724303C305.77 -0.0456975 306.373 0.0331086 307.014 0.0035563C307.658 -0.025996 308.123 0.120124 308.404 0.763706C308.824 1.72251 309.183 2.69281 309.259 3.74028C309.299 4.28863 309.442 4.69416 310.09 4.75654C310.706 4.81565 311.225 4.81729 311.466 4.0752C311.782 3.1049 312.371 2.2758 312.986 1.45983C313.506 0.768632 314.117 0.857288 314.831 1.02803C315.543 1.19878 315.94 1.57311 316.023 2.29386C316.143 3.32819 316.201 4.36744 315.968 5.38699C315.819 6.04371 316.166 6.26371 316.666 6.4755C317.184 6.6955 317.616 6.8449 318.011 6.23087C318.609 5.29998 319.439 4.57923 320.334 3.91759C321.04 3.3955 321.576 3.80102 322.154 4.11132C322.663 4.3855 323.005 4.67938 322.922 5.38699C322.79 6.51326 322.558 7.60177 322.061 8.61476C321.741 9.26819 322.119 9.54401 322.545 9.89207C322.965 10.2368 323.275 10.3189 323.747 9.91177C324.604 9.17132 325.61 8.6558 326.69 8.26505C327.324 8.0352 327.758 8.25356 328.159 8.68043C328.591 9.14013 329.051 9.55879 328.772 10.3189C328.399 11.3352 327.882 12.2645 327.181 13.0804C326.754 13.5779 326.693 13.9555 327.13 14.5006C327.547 15.0227 327.902 15.154 328.525 14.8454C329.418 14.4021 330.396 14.2182 331.394 14.0901C332.313 13.9736 332.713 14.4546 333.13 15.1491C333.563 15.8682 333.314 16.3624 332.881 16.9173C332.25 17.7251 331.516 18.4261 330.664 18.9925C330.225 19.2831 330.149 19.5819 330.401 20.0137C330.642 20.4258 330.629 21.0431 331.446 20.8724C332.529 20.6442 333.633 20.6491 334.744 20.8248C335.505 20.9446 335.812 21.378 335.99 22.0446C336.171 22.7194 336.232 23.294 335.568 23.7964C334.702 24.4515 333.782 25.0031 332.764 25.3627C332.074 25.6073 332.145 26.0949 332.187 26.6219C332.228 27.1424 332.487 27.3624 333.03 27.4198C334.161 27.5413 335.249 27.8418 336.295 28.3081C336.923 28.5872 337.017 29.0534 336.998 29.6412C336.976 30.2634 337.089 30.8873 336.307 31.2239C335.282 31.6639 334.229 31.9791 333.126 32.1121C332.555 32.181 332.22 32.3813 332.167 33.0036C332.117 33.5946 332.238 33.9607 332.869 34.189C333.91 34.5649 334.852 35.133 335.701 35.8603C336.333 36.4021 336.063 36.9898 335.923 37.5907C335.797 38.1325 335.548 38.5167 334.915 38.63C334.309 38.7384 333.708 38.7499 333.098 38.781L333.105 38.7794ZM306.891 53.1878C311.968 53.2961 317.031 51.4606 320.867 48.6696C324.42 46.0854 327.075 42.7936 328.779 38.7679C329.141 37.9125 329.016 37.6499 328.153 37.3478C327.372 37.0736 326.583 36.8175 325.798 36.5581C324.65 36.1788 324.527 36.2363 324.038 37.3149C322.995 39.6085 321.58 41.6575 319.688 43.3387C315.914 46.6928 311.511 48.4249 306.376 48.2673C300.868 48.0966 296.342 45.9179 292.704 41.884C291.427 40.4672 290.43 38.8681 289.69 37.113C289.497 36.6549 289.255 36.169 288.595 36.3807C287.517 36.7255 286.445 37.0884 285.375 37.4561C284.894 37.6219 284.771 37.9913 284.905 38.4445C284.99 38.7318 285.1 39.0142 285.231 39.2834C289.627 48.223 296.89 52.7921 306.889 53.1878H306.891ZM330.642 29.7857C330.672 28.2736 330.549 26.837 330.275 25.4136C329.475 21.2483 327.739 17.5297 324.831 14.3791C324.053 13.5352 323.911 13.5467 323.113 14.3233C322.523 14.8979 321.935 15.4758 321.354 16.0586C320.557 16.8582 320.562 17.0634 321.296 17.8942C323.411 20.2895 324.826 23.028 325.399 26.1672C325.836 28.5543 325.775 30.9431 325.336 33.3237C325.212 33.9985 325.481 34.3613 326.113 34.537C327.045 34.7948 327.968 35.0788 328.903 35.3185C329.754 35.5369 329.968 35.3907 330.152 34.5124C330.484 32.933 330.71 31.3437 330.64 29.7857H330.642ZM283.191 29.7101C283.125 31.3651 283.437 32.9757 283.719 34.5879C283.854 35.3628 284.153 35.5434 284.95 35.3316C285.858 35.0919 286.752 34.7997 287.66 34.5649C288.419 34.3696 288.653 33.9706 288.514 33.1825C287.919 29.8218 288.036 26.4988 289.274 23.271C290.047 21.2598 291.173 19.4555 292.598 17.8301C293.275 17.0569 293.272 16.8483 292.544 16.1128C292.061 15.6236 291.568 15.1458 291.08 14.6631C289.882 13.481 289.774 13.481 288.658 14.7879C284.977 19.0992 283.273 24.1166 283.193 29.7101H283.191ZM306.83 6.2867C304.345 6.27028 301.929 6.67908 299.577 7.44252C296.929 8.30117 294.476 9.54073 292.312 11.2909C291.56 11.9 291.578 12.0937 292.237 12.8095C292.757 13.3743 293.268 13.9489 293.793 14.5104C294.712 15.4922 294.813 15.4758 295.919 14.7124C300.59 11.4895 305.709 10.4355 311.28 11.7194C313.76 12.2907 316.028 13.33 318.072 14.8404C318.919 15.466 319.144 15.4315 319.886 14.6467C320.394 14.1082 320.882 13.5516 321.385 13.0066C322.221 12.1019 322.201 11.7916 321.191 11.0561C316.923 7.94491 312.149 6.31789 306.83 6.2867ZM323.81 29.7512C323.845 27.8204 323.526 26.0555 322.995 24.3218C322.8 23.6848 322.443 23.5419 321.885 23.9163C319.391 25.5876 316.892 27.2491 314.412 28.9401C313.673 29.4442 313.695 29.9778 314.447 30.4867C316.885 32.1416 319.331 33.7851 321.786 35.4154C322.511 35.8981 322.785 35.7864 323.025 34.9622C323.526 33.2236 323.858 31.4587 323.812 29.7512H323.81ZM304.559 44.6307C304.508 43.8903 304.45 42.9939 304.383 42.0991C304.247 40.2816 304.143 38.4593 303.953 36.6467C303.845 35.6173 303.419 35.4072 302.502 35.8422C299.865 37.0933 297.236 38.3607 294.612 39.6381C293.758 40.0534 293.732 40.2833 294.389 40.9564C296.799 43.424 299.64 45.1742 303.03 46.0213C304.551 46.4006 304.604 46.3711 304.559 44.6324V44.6307ZM290 29.9104C289.957 31.5621 290.271 33.2203 290.729 34.8555C291.012 35.8636 291.299 35.967 292.182 35.3776C294.541 33.8031 296.892 32.2172 299.24 30.6295C300.164 30.0057 300.167 29.5164 299.239 28.8876C296.869 27.2819 294.492 25.6845 292.113 24.0936C291.269 23.5288 291.04 23.6142 290.754 24.6091C290.261 26.3215 289.972 28.0667 290.002 29.9104H290ZM309.42 44.5125C309.42 44.5125 309.407 44.5125 309.4 44.5125C309.4 44.703 309.404 44.8934 309.4 45.0839C309.384 46.2003 309.505 46.2808 310.571 46.023C314.017 45.189 316.955 43.4963 319.423 40.9909C320.22 40.1815 320.17 39.9057 319.119 39.4033C316.634 38.2146 314.15 37.0243 311.664 35.839C310.44 35.2561 310.083 35.4269 309.972 36.7748C309.759 39.3524 309.6 41.9349 309.419 44.5142L309.42 44.5125ZM304.4 15.0473C304.4 15.0473 304.413 15.0473 304.42 15.0473C304.42 14.7748 304.422 14.5022 304.42 14.228C304.413 13.3858 304.209 13.2003 303.359 13.3957C299.78 14.2149 296.759 16.0028 294.225 18.6051C293.639 19.2076 293.709 19.5507 294.469 19.9201C297.025 21.1597 299.584 22.396 302.158 23.5994C303.39 24.1757 303.742 23.9721 303.852 22.634C304.058 20.1073 304.221 17.5757 304.4 15.0457V15.0473ZM309.422 15.0998C309.588 17.5001 309.756 20.1106 309.957 22.7178C310.041 23.8046 310.495 24.0443 311.509 23.5682C314.078 22.3615 316.643 21.1433 319.2 19.9152C320.19 19.4407 320.223 19.2224 319.454 18.4343C317.142 16.0652 314.407 14.3939 311.182 13.5122C309.349 13.0115 309.354 12.9901 309.42 15.0998H309.422ZM312.717 29.8267C312.748 26.6219 310.219 24.0197 307.04 23.9885C303.706 23.9557 301.001 26.5366 300.991 29.7594C300.981 32.8591 303.643 35.5122 306.805 35.5533C310.036 35.596 312.685 33.0299 312.717 29.8267Z" fill="#F7A81B"/>
<path d="M99.5215 19.5655C100.003 19.8578 100.432 20.0909 100.83 20.3667C102.708 21.6572 103.251 23.5863 103.447 25.6927C103.63 27.653 103.547 29.6182 103.587 31.5801C103.61 32.7097 103.811 33.7522 104.746 34.5255C105.002 34.7373 105.101 35.0213 104.998 35.3349C104.872 35.724 104.515 35.6387 104.226 35.6387C102.042 35.6452 99.8569 35.6288 97.6731 35.6518C97.1018 35.6567 96.8428 35.4449 96.6966 34.8998C96.2549 33.2498 96.1087 31.5752 96.0872 29.8776C96.0705 28.5166 96.1503 27.1522 95.9144 25.7961C95.574 23.8375 94.6424 22.9115 92.6363 22.7095C89.9908 22.4436 87.3337 22.5651 84.6816 22.5355C83.9575 22.5273 83.9858 22.987 83.9858 23.4681C83.9858 27.0439 83.9858 30.6181 83.9858 34.1939C83.9858 34.4401 83.9758 34.6848 83.9824 34.931C83.9957 35.4482 83.7483 35.6534 83.2235 35.6502C81.3154 35.6337 79.4073 35.6321 77.4991 35.6518C76.9378 35.6584 76.6688 35.4548 76.6937 34.8933C76.702 34.7028 76.6904 34.5107 76.6904 34.3203C76.6904 23.9228 76.6904 13.5254 76.6904 3.12789C76.6904 2.25117 77.1282 1.81227 78.004 1.81117C83.368 1.81117 88.732 1.79804 94.0977 1.81774C96.3396 1.82595 98.4935 2.20028 100.4 3.49894C104.796 6.49028 105.824 13.284 102.487 17.4C102.104 17.8728 101.662 18.2849 101.146 18.61C100.641 18.9269 100.118 19.2175 99.5215 19.5655ZM83.9874 12.161C83.9874 13.4154 83.999 14.668 83.9824 15.9224C83.9758 16.4494 84.1286 16.7318 84.7314 16.7236C87.6011 16.6891 90.474 16.8073 93.3387 16.561C95.564 16.3689 96.8644 15.1212 97.047 12.9885C97.1035 12.3383 97.0819 11.6866 96.9474 11.0364C96.5156 8.95789 95.3432 7.94327 93.2025 7.77088C90.391 7.54431 87.5745 7.67237 84.7596 7.6264C84.1817 7.61655 83.9725 7.84804 83.9808 8.39968C84.0007 9.65237 83.9874 10.9067 83.9874 12.161Z" fill="#F7A81B"/>
<path d="M169.167 33.0594C168.008 34.1003 166.899 35.0017 165.58 35.5993C163.068 36.7387 160.475 36.8372 157.91 35.9145C155.267 34.9639 153.706 33.0151 153.396 30.2438C152.891 25.7452 154.691 22.3796 159.487 21.117C161.717 20.5293 164.014 20.4045 166.271 20.0121C166.763 19.9267 167.241 19.802 167.699 19.6C168.571 19.2142 169.026 18.6002 168.975 17.6118C168.923 16.6251 168.486 15.929 167.545 15.6187C166.039 15.1212 164.489 15.1426 162.963 15.484C161.757 15.7533 161.126 16.6694 160.846 17.7875C160.678 18.454 160.336 18.6396 159.678 18.6215C158.157 18.5805 156.636 18.6133 155.115 18.6067C154.176 18.6018 154.075 18.4705 154.211 17.5314C154.784 13.614 156.913 11.1596 160.834 10.2615C164.404 9.44225 167.98 9.58016 171.431 10.9428C174.442 12.1315 175.755 14.187 175.772 17.6873C175.793 22.1924 175.787 26.6975 175.798 31.2026C175.802 32.4815 175.7 33.772 176.949 34.693C177.399 35.0247 177.117 35.6239 176.529 35.6305C174.481 35.6535 172.436 35.6354 170.388 35.6453C169.949 35.6469 169.72 35.4269 169.626 35.0427C169.476 34.4369 169.343 33.8261 169.167 33.0611V33.0594ZM168.955 25.7124C168.955 25.1329 168.946 24.7241 168.956 24.3152C168.97 23.8129 168.787 23.6733 168.307 23.9064C167.402 24.3432 166.416 24.4926 165.437 24.683C164.194 24.926 162.915 25.0623 161.767 25.6582C160.595 26.2673 159.969 27.4215 160.102 28.712C160.259 30.2454 160.856 31.1418 162.109 31.4012C164.747 31.9496 168.305 30.7839 168.819 27.4987C168.921 26.8452 168.94 26.1967 168.955 25.7124Z" fill="#F7A81B"/>
<path d="M213.997 33.1071C213.106 33.7704 212.386 34.4977 211.5 35.0033C208.152 36.9095 204.742 37.1459 201.34 35.2184C199.407 34.1233 198.473 32.3207 198.191 30.1748C197.585 25.568 199.825 22.3139 204.374 21.1006C206.576 20.5145 208.848 20.4012 211.076 20.0138C211.568 19.9284 212.048 19.8069 212.506 19.6033C213.376 19.2192 213.843 18.6117 213.793 17.6217C213.743 16.6366 213.318 15.9306 212.373 15.622C210.84 15.1196 209.263 15.1229 207.713 15.5021C206.513 15.796 205.921 16.74 205.641 17.8515C205.49 18.4492 205.182 18.6265 204.591 18.615C203.042 18.5854 201.492 18.61 199.945 18.6035C199.006 18.6002 198.895 18.4623 199.028 17.5396C199.588 13.6305 201.723 11.1645 205.642 10.2599C209.213 9.43571 212.788 9.57527 216.239 10.9347C219.253 12.1217 220.574 14.1756 220.59 17.6726C220.612 22.2039 220.607 26.7369 220.617 31.2699C220.62 32.5259 220.516 33.8163 221.773 34.6684C221.999 34.8211 221.975 35.1084 221.901 35.353C221.822 35.6141 221.583 35.6354 221.361 35.6354C219.287 35.6387 217.211 35.6354 215.137 35.6387C214.726 35.6387 214.535 35.3924 214.449 35.051C214.296 34.4451 214.165 33.8327 213.997 33.1054V33.1071ZM213.77 25.7765C213.77 25.1362 213.765 24.6995 213.77 24.2627C213.776 23.7866 213.576 23.6881 213.152 23.8917C212.22 24.3383 211.207 24.4926 210.203 24.688C208.959 24.9293 207.68 25.0689 206.538 25.678C205.382 26.2936 204.772 27.4708 204.927 28.758C205.109 30.2963 205.72 31.1747 206.974 31.4111C209.623 31.9118 213.157 30.8004 213.664 27.3657C213.752 26.7665 213.755 26.1705 213.77 25.7748V25.7765Z" fill="#F7A81B"/>
<path d="M121.607 36.453C119.895 36.5581 118.181 36.3019 116.514 35.7503C113.558 34.7718 111.487 32.7606 110.225 30.0336C107.846 24.8948 108.034 19.8134 111.038 14.9373C113.056 11.6619 116.176 10.1531 119.94 9.87564C121.642 9.75086 123.359 9.75907 125.061 10.0858C129.17 10.8755 131.906 13.3267 133.429 17.0503C135.445 21.9756 135.18 26.8222 132.32 31.4028C130.249 34.7192 127.061 36.1755 123.231 36.4481C122.708 36.4858 122.181 36.453 121.607 36.453ZM115.701 23.5945C115.658 24.197 115.831 25.274 116.077 26.3395C116.729 29.1634 118.648 30.7264 121.295 30.8725C124.734 31.0646 126.498 28.9336 127.154 26.5185C127.408 25.586 127.524 24.6337 127.549 23.6897C127.6 21.7162 127.401 19.7756 126.423 17.9795C124.503 14.4579 118.965 14.8322 117.228 17.4131C116.05 19.1633 115.75 21.0792 115.7 23.5928L115.701 23.5945Z" fill="#F7A81B"/>
<path d="M244.765 19.4243C243.88 19.4243 242.995 19.4013 242.111 19.4341C241.57 19.4538 241.314 19.2404 241.188 18.7314C240.942 17.7365 240.543 16.8023 239.672 16.1702C237.722 14.7567 234.615 15.3034 233.263 17.2817C232.414 18.5229 232.139 19.9349 232.006 21.3879C231.82 23.4105 231.815 25.4283 232.406 27.3919C233.363 30.5704 235.565 31.2813 238.456 30.7017C240.15 30.3619 240.809 28.9828 241.101 27.4691C241.239 26.7582 241.513 26.5152 242.237 26.5332C243.951 26.5776 245.667 26.5661 247.38 26.5398C248.078 26.5283 248.224 26.8156 248.123 27.4444C247.294 32.6374 242.83 36.4365 237.486 36.4628C236.161 36.4694 234.837 36.5006 233.52 36.2428C229.96 35.545 227.391 33.5929 226.085 30.2601C224.131 25.2723 224.187 20.255 226.582 15.4216C228.306 11.9426 231.395 10.2237 235.221 9.88381C237.735 9.66053 240.235 9.83456 242.641 10.7917C246.338 12.2628 247.766 15.2098 248.227 18.8431C248.286 19.2946 248.075 19.4292 247.668 19.4276C246.7 19.4226 245.731 19.4259 244.765 19.4276V19.4243Z" fill="#F7A81B"/>
<path d="M140.049 23.9015C140.049 21.3912 140.029 18.8809 140.06 16.3722C140.069 15.6909 139.838 15.4413 139.154 15.4873C138.493 15.5316 137.827 15.4807 137.164 15.4988C136.673 15.5119 136.45 15.2952 136.45 14.8224C136.45 13.7306 136.455 12.6404 136.447 11.5486C136.443 11.0397 136.659 10.8 137.196 10.8197C137.83 10.8427 138.469 10.7852 139.102 10.8328C139.816 10.887 140.082 10.6489 140.062 9.91504C140.016 8.16982 140.069 6.42295 140.037 4.67773C140.026 4.01444 140.245 3.75504 140.937 3.76817C142.595 3.80265 144.255 3.80101 145.913 3.76817C146.574 3.75668 146.781 4.01937 146.771 4.63996C146.746 6.27683 146.763 7.9137 146.765 9.55057C146.765 10.3966 147.207 10.8202 148.093 10.8213C148.756 10.8213 149.42 10.841 150.083 10.8164C150.629 10.7967 150.91 10.9855 150.9 11.5618C150.881 12.6256 150.881 13.6895 150.9 14.7534C150.91 15.3297 150.629 15.5136 150.083 15.5004C149.226 15.4774 148.369 15.5119 147.512 15.4906C146.995 15.4774 146.758 15.6482 146.76 16.1933C146.773 20.5851 146.756 24.9785 146.78 29.3703C146.785 30.4703 147.132 30.7822 148.229 30.8298C148.892 30.8594 149.556 30.8545 150.219 30.8315C150.675 30.8151 150.891 30.9989 150.89 31.4439C150.89 32.7261 150.89 34.0084 150.886 35.2906C150.886 35.6895 150.666 35.9063 150.272 35.9079C148.095 35.9227 145.904 36.2166 143.749 35.7043C141.186 35.0969 140.067 33.6915 140.052 31.1024C140.039 28.7021 140.049 26.3001 140.049 23.8998V23.9015Z" fill="#F7A81B"/>
<path d="M253.583 23.936C253.583 21.4257 253.558 18.9154 253.598 16.4068C253.61 15.6762 253.359 15.4332 252.642 15.4857C251.982 15.535 251.315 15.4824 250.652 15.4956C250.194 15.5038 249.991 15.2854 249.991 14.8553C249.988 13.7372 249.991 12.6175 249.988 11.4994C249.988 11.0266 250.205 10.8066 250.699 10.8197C251.389 10.8378 252.082 10.7935 252.771 10.8296C253.379 10.8608 253.603 10.6408 253.595 10.03C253.567 8.2569 253.611 6.48212 253.573 4.71063C253.558 3.99809 253.794 3.74689 254.525 3.76495C256.127 3.80764 257.732 3.81256 259.334 3.76331C260.125 3.73868 260.329 4.05062 260.314 4.77137C260.277 6.48869 260.325 8.20928 260.292 9.9266C260.279 10.585 260.475 10.8739 261.182 10.8329C261.981 10.7853 262.787 10.8444 263.587 10.8165C264.177 10.7951 264.456 11.0003 264.442 11.6111C264.419 12.6471 264.424 13.6847 264.441 14.7206C264.449 15.269 264.235 15.5169 263.658 15.5005C262.775 15.4759 261.89 15.5103 261.005 15.4923C260.52 15.4824 260.302 15.6597 260.304 16.1588C260.314 20.5786 260.299 24.9983 260.325 29.418C260.332 30.4654 260.689 30.779 261.737 30.8283C262.4 30.8595 263.064 30.8611 263.727 30.8315C264.226 30.8102 264.439 31.0105 264.437 31.4915C264.431 32.7459 264.434 34.0018 264.432 35.2562C264.432 35.642 264.255 35.8998 263.849 35.903C261.536 35.9227 259.206 36.2462 256.923 35.6174C254.767 35.0247 253.631 33.5963 253.603 31.3815C253.571 28.8992 253.596 26.4168 253.596 23.9344H253.591L253.583 23.936Z" fill="#F7A81B"/>
<path d="M188.056 14.0491C188.426 13.5517 188.788 13.0477 189.169 12.5568C190.791 10.4668 192.983 9.6869 195.585 9.8363C196.044 9.86257 196.225 10.0662 196.225 10.4963C196.221 12.2711 196.218 14.0459 196.225 15.819C196.226 16.3197 195.969 16.4741 195.499 16.4806C194.893 16.4888 194.287 16.5677 193.681 16.5841C189.66 16.6875 188.333 19.0747 188.267 22.1645C188.194 25.5483 188.232 28.9336 188.224 32.319C188.222 33.0283 188.225 33.7392 188.224 34.4484C188.22 35.2419 187.824 35.6398 187.035 35.642C185.459 35.6436 183.881 35.6207 182.305 35.6518C181.649 35.665 181.367 35.4795 181.368 34.7784C181.387 26.97 181.385 19.1633 181.372 11.355C181.372 10.7376 181.554 10.4668 182.22 10.4799C183.824 10.5127 185.429 10.5127 187.033 10.4799C187.699 10.4668 187.913 10.7426 187.898 11.355C187.875 12.2399 187.891 13.1248 187.891 14.0114C187.946 14.0229 188.001 14.0344 188.056 14.0459V14.0491Z" fill="#F7A81B"/>
<path d="M53.572 0.0790844C54.389 -0.0637516 54.6166 0.212069 54.6647 0.847443C55.0317 5.79252 55.4286 10.7376 55.8222 15.681C55.9036 16.7137 56.0099 17.7431 56.1095 18.7742C56.1693 19.3931 55.9833 19.5819 55.3655 19.2782C49.9434 16.6234 44.5163 13.9769 39.0858 11.3385C38.6192 11.1119 38.4913 10.8903 38.7703 10.3961C40.4742 7.367 42.1498 4.32312 43.8271 1.28088C44.0131 0.942667 44.2522 0.732518 44.6591 0.704607C47.6882 0.4961 50.7173 0.279383 53.572 0.0774426V0.0790844ZM52.2833 2.96864C52.2949 2.0164 51.5875 1.28416 50.6591 1.2858C49.8188 1.2858 49.0284 2.06894 49.0151 2.91118C49.0018 3.7961 49.789 4.58416 50.689 4.58416C51.5875 4.58416 52.2733 3.88968 52.285 2.96864H52.2833Z" fill="#F7A81B"/>
<path d="M34.0224 44.2022C33.9892 43.8361 34.1968 43.6654 34.3363 43.4749C40.0988 35.5303 45.8697 27.5906 51.624 19.6394C51.9545 19.1829 52.2335 19.0303 52.7748 19.3225C53.6218 19.7806 54.5003 20.1877 55.3871 20.5686C56.0215 20.8412 56.1377 21.1186 55.7159 21.7195C52.5291 26.2476 49.3721 30.7953 46.2068 35.3382C44.9215 37.1819 43.6344 39.024 42.3507 40.8694C42.1282 41.1895 41.894 41.467 41.4988 41.6082C39.1307 42.4471 36.7675 43.3009 34.4027 44.1448C34.3031 44.1809 34.1901 44.1776 34.0241 44.2022H34.0224Z" fill="#F7A81B"/>
<path d="M211.133 59.883C209.612 59.9568 208.207 59.7155 206.978 58.8683C205.573 57.9013 204.824 56.5665 204.776 54.8558C204.762 54.3945 204.923 54.1991 205.392 54.2303C205.694 54.25 206 54.2451 206.303 54.2336C206.729 54.2171 206.976 54.3748 207.033 54.8213C207.303 56.9409 209.069 57.7404 210.736 57.7224C211.704 57.7125 212.672 57.7519 213.587 57.3415C214.622 56.8768 215.12 56.1462 215.08 55.1136C215.042 54.135 214.584 53.5768 213.459 53.1861C212.335 52.7953 211.153 52.623 209.997 52.3537C209.485 52.2355 208.969 52.1321 208.469 51.9794C206.368 51.3456 205.398 50.3277 205.294 48.6744C205.149 46.3825 206.152 44.478 208.097 43.7507C210.434 42.8773 212.769 42.9758 214.954 44.281C216.271 45.0674 216.806 46.3283 216.935 47.7879C216.97 48.1803 216.802 48.4167 216.371 48.415C216.038 48.415 215.706 48.4036 215.376 48.4216C214.901 48.4479 214.705 48.2147 214.582 47.778C214.127 46.1707 213.23 45.491 211.53 45.4352C210.978 45.4171 210.422 45.4253 209.872 45.4647C209.082 45.5206 208.454 45.8916 207.986 46.5188C207.086 47.7271 207.503 49.1555 208.952 49.5939C210.297 50.001 211.681 50.2916 213.049 50.6265C213.72 50.7907 214.384 50.9647 215.025 51.234C216.684 51.9285 217.41 53.2485 217.433 54.9231C217.458 56.6224 216.89 58.077 215.231 58.9373C213.924 59.6137 212.559 59.9667 211.133 59.8813V59.883Z" fill="#F7A81B"/>
<path d="M127.511 50.9993C128.48 50.1029 129.274 49.392 130.041 48.6515C131.405 47.3348 132.798 46.0427 134.085 44.6538C134.843 43.8378 135.648 43.4027 136.762 43.585C137.207 43.6572 137.867 43.3518 138.051 43.7738C138.204 44.1235 137.573 44.4272 137.267 44.7211C135.663 46.2644 134.057 47.8044 132.411 49.3033C131.853 49.8106 131.709 50.1554 132.23 50.8368C134.178 53.3848 136.047 55.9936 137.941 58.5811C138.083 58.7748 138.355 58.9636 138.255 59.2115C138.126 59.5284 137.774 59.3593 137.518 59.4004C136.116 59.6253 135.185 59.1426 134.411 57.8866C133.22 55.9559 131.767 54.186 130.475 52.3144C130.051 51.7003 129.834 51.8235 129.288 52.2142C127.791 53.2863 127.227 54.6408 127.494 56.4271C127.602 57.1478 127.492 57.8998 127.516 58.6353C127.532 59.1968 127.296 59.448 126.728 59.402C126.591 59.3905 126.449 59.3872 126.313 59.4036C125.531 59.5054 125.254 59.2033 125.26 58.4021C125.295 54.4175 125.275 50.4312 125.275 46.4466C125.275 45.7636 125.3 45.0806 125.269 44.3993C125.242 43.805 125.475 43.5833 126.086 43.5768C127.509 43.5587 127.509 43.5341 127.509 44.9493C127.509 46.8817 127.509 48.8141 127.509 51.0009L127.511 50.9993Z" fill="#F7A81B"/>
<path d="M72.821 51.7923C72.7811 49.0028 73.4869 46.7585 75.3984 44.8951C77.6868 42.6639 83.3697 42.5785 85.4372 45.2481C85.7909 45.7045 86.1563 46.1511 86.3855 46.6814C86.5997 47.1772 87.0265 47.806 86.6811 48.2099C86.2642 48.6991 85.4887 48.3839 84.8676 48.3937C84.5687 48.3987 84.4724 48.136 84.3794 47.9045C83.5573 45.8391 81.9033 45.2973 79.8324 45.4221C77.8778 45.5403 76.5177 46.5073 75.8285 48.2476C74.9782 50.3984 74.935 52.6279 75.7587 54.8132C76.5359 56.8785 77.999 57.7536 80.4269 57.7208C82.36 57.6945 83.657 56.7078 84.3926 54.7031C84.7912 53.6212 85.4156 53.3142 86.5715 53.5933C87.0746 53.7148 86.9418 54.0415 86.8903 54.3617C86.4618 57.0493 84.4009 59.2706 81.6807 59.7599C77.2517 60.5561 74.0914 58.4382 73.1382 54.4864C72.9057 53.5243 72.7778 52.5557 72.816 51.7939L72.821 51.7923Z" fill="#F7A81B"/>
<path d="M234.223 58.5466C234.223 60.1375 234.188 61.6101 234.236 63.0795C234.264 63.9087 233.839 64.0121 233.16 63.9989C232.524 63.9875 232.037 63.9809 232.042 63.1206C232.067 58.3167 232.052 53.5128 232.059 48.7073C232.059 48.3691 231.993 47.893 232.501 47.8831C233.045 47.8716 233.844 47.5219 234.085 48.1343C234.372 48.86 234.552 48.6252 234.96 48.3297C236.985 46.8685 239.811 47.3068 241.317 49.2901C242.078 50.2933 242.342 51.4507 242.44 52.664C242.564 54.2122 242.387 55.7292 241.709 57.1363C240.402 59.8551 236.99 60.5873 234.568 58.7058C234.509 58.6598 234.429 58.6401 234.225 58.5449L234.223 58.5466ZM240.311 53.5571C240.339 52.8413 240.226 52.1452 240.007 51.4671C239.522 49.9633 238.68 49.346 237.167 49.3591C235.759 49.3722 234.859 50.0519 234.442 51.518C234.065 52.843 233.995 54.2024 234.309 55.5519C234.655 57.0394 235.56 57.8291 236.898 57.88C238.509 57.9407 239.477 57.2692 239.98 55.726C240.21 55.0233 240.331 54.2992 240.311 53.5588V53.5571Z" fill="#F7A81B"/>
<path d="M108.346 58.4694C108.119 59.3428 107.589 59.6186 106.669 59.3822C106.269 59.2788 106.252 58.9865 106.246 58.6877C106.232 58.0064 106.236 57.3234 106.236 56.6421C106.236 52.6591 106.234 48.6777 106.236 44.6947C106.236 43.7014 107.166 43.1744 108.082 43.6407C108.421 43.8131 108.376 44.1398 108.38 44.432C108.39 45.6322 108.386 46.8323 108.386 48.0325C108.386 48.4823 108.489 48.6334 108.962 48.3494C112.249 46.3759 115.735 47.8683 116.474 51.5722C116.857 53.4964 116.625 55.3401 115.791 57.151C114.393 60.185 110.156 60.5101 108.492 58.5104C108.466 58.4792 108.394 58.4825 108.345 58.4694H108.346ZM108.237 53.7919C108.202 54.511 108.353 55.4764 108.781 56.381C109.261 57.3956 110.097 57.8373 111.228 57.8964C112.405 57.9571 113.327 57.5598 113.82 56.5206C114.692 54.685 114.808 52.774 113.946 50.9056C113.151 49.1801 110.959 48.7877 109.486 50.024C108.375 50.9549 108.247 52.2109 108.237 53.7935V53.7919Z" fill="#F7A81B"/>
<path d="M253.827 53.7493C253.827 54.8394 253.837 55.9312 253.824 57.0214C253.819 57.5254 253.95 57.8817 254.546 57.8882C255.164 57.8948 255.133 58.3364 255.138 58.7567C255.141 59.1836 255.128 59.6285 254.568 59.6827C253.515 59.7845 252.5 59.9093 251.971 58.6632C251.745 58.1296 251.474 58.4054 251.21 58.6041C250.036 59.4873 248.716 59.8272 247.246 59.732C245.692 59.6318 244.391 58.5975 244.043 57.1051C243.669 55.5011 244.31 54.0366 245.698 53.26C246.693 52.7034 247.806 52.6476 248.893 52.4802C249.412 52.4014 249.931 52.3291 250.454 52.2914C251.1 52.2454 251.6 52.004 251.718 51.3342C251.836 50.6627 251.597 50.0914 251.007 49.7072C249.578 48.773 247.376 49.4215 246.645 50.9517C246.271 51.7364 245.521 51.3424 244.949 51.3276C244.393 51.3145 244.62 50.7809 244.655 50.4805C244.83 48.9815 246.047 47.8552 247.915 47.5893C249.172 47.4103 250.451 47.4169 251.682 47.8552C253.15 48.3773 253.812 49.277 253.824 50.8055C253.832 51.7873 253.824 52.7691 253.827 53.7493ZM251.639 54.9527C251.651 54.1657 251.281 53.8554 250.531 54.0218C250.262 54.0809 249.988 54.1154 249.717 54.1663C248.878 54.3223 248.01 54.3452 247.214 54.6949C246.539 54.9921 246.201 55.5224 246.206 56.2464C246.21 56.9409 246.545 57.4367 247.195 57.7191C249.211 58.5942 251.605 57.1051 251.64 54.9543L251.639 54.9527Z" fill="#F7A81B"/>
<path d="M161.372 53.7738C161.372 54.8377 161.384 55.9 161.369 56.9639C161.362 57.4925 161.472 57.8816 162.118 57.8915C162.745 57.9013 162.669 58.3742 162.681 58.7797C162.694 59.2164 162.641 59.6383 162.086 59.6859C160.96 59.7812 160.03 59.878 159.504 58.6368C159.306 58.1706 159.05 58.3741 158.8 58.5662C157.634 59.4561 156.322 59.8189 154.847 59.7319C153.245 59.6383 151.923 58.6007 151.581 57.0771C151.214 55.4386 151.881 53.9627 153.341 53.2107C154.757 52.4818 156.343 52.5507 157.861 52.3127C158.58 52.1994 159.17 52.0418 159.281 51.2258C159.387 50.4492 158.904 49.7203 158.076 49.4953C157.239 49.2688 156.373 49.2737 155.533 49.4691C154.831 49.6332 154.432 50.1356 154.226 50.8186C154.072 51.3292 153.177 51.5903 152.469 51.3473C151.921 51.1585 152.159 50.6938 152.218 50.3737C152.439 49.185 153.143 48.3477 154.296 47.9225C155.995 47.2953 157.712 47.3298 159.402 47.9307C160.751 48.4118 161.354 49.3262 161.369 50.748C161.379 51.7561 161.37 52.7658 161.372 53.7738ZM159.183 54.9264C159.194 54.158 158.817 53.8581 158.051 54.0267C157.782 54.0858 157.508 54.117 157.235 54.1679C156.397 54.3255 155.526 54.3452 154.734 54.7031C154.062 55.0068 153.736 55.547 153.749 56.2694C153.763 56.9639 154.11 57.4531 154.761 57.7273C156.797 58.581 159.153 57.0886 159.183 54.928V54.9264Z" fill="#F7A81B"/>
<path d="M142.135 48.7189C143.061 47.8799 144.121 47.4809 145.385 47.5039C147.889 47.5483 149.271 48.7156 149.374 51.2193C149.475 53.6984 149.39 56.1841 149.408 58.6665C149.415 59.558 148.779 59.3757 148.251 59.3987C147.691 59.4233 147.198 59.4217 147.208 58.6304C147.233 56.6389 147.215 54.6474 147.213 52.6542C147.213 52.3817 147.215 52.1092 147.213 51.835C147.193 50.2835 146.735 49.5545 145.68 49.3904C144.029 49.1342 142.628 49.8533 142.179 51.1914C141.997 51.7398 141.934 52.3062 141.935 52.8841C141.942 54.7672 141.905 56.6504 141.95 58.5319C141.97 59.4036 141.464 59.4004 140.833 59.4069C140.182 59.4135 139.727 59.3675 139.732 58.5154C139.762 53.8232 139.76 49.1293 139.732 44.4354C139.727 43.5521 140.241 43.5866 140.861 43.5718C141.525 43.5571 141.98 43.6342 141.949 44.4748C141.899 45.8556 141.935 47.2396 141.935 48.622L142.135 48.7139V48.7189Z" fill="#F7A81B"/>
<path d="M221.94 48.8912C223.055 47.893 224.109 47.4809 225.371 47.5022C227.866 47.5466 229.232 48.6433 229.362 51.1207C229.493 53.6524 229.397 56.1939 229.405 58.7321C229.405 59.2197 229.163 59.3806 228.684 59.4052C227.273 59.4742 227.216 59.4413 227.216 58.0754C227.216 55.9739 227.225 53.874 227.211 51.7725C227.201 50.2851 226.728 49.5627 225.699 49.3952C224.126 49.1407 222.738 49.7925 222.248 51.0272C222.012 51.6182 221.935 52.2372 221.939 52.8725C221.945 54.7278 221.906 56.5846 221.955 58.4382C221.979 59.2854 221.587 59.4249 220.851 59.42C220.135 59.4151 219.727 59.3182 219.732 58.4546C219.765 53.8166 219.765 49.1768 219.732 44.5388C219.725 43.6801 220.127 43.5718 220.846 43.5701C221.575 43.5668 221.987 43.6949 221.952 44.5486C221.897 45.9048 221.937 47.2642 221.937 48.8961L221.94 48.8912Z" fill="#F7A81B"/>
<path d="M174.021 52.3062C175.249 51.1356 176.562 50.0389 177.678 48.7714C178.572 47.7584 179.626 47.8044 180.759 47.852C180.893 47.8569 181.091 47.8635 181.076 48.026C181.063 48.1672 180.938 48.3166 180.825 48.425C179.834 49.3756 178.852 50.336 177.834 51.2587C176.871 52.1321 176.848 52.1157 177.542 53.1796C178.724 54.9921 179.92 56.7965 181.099 58.6123C181.524 59.269 181.451 59.3166 180.669 59.4102C179.435 59.558 178.605 59.2066 178.019 58.0295C177.374 56.7374 176.491 55.5651 175.735 54.3256C175.451 53.861 175.214 53.8018 174.777 54.1795C174.113 54.7541 173.709 55.3681 173.807 56.2974C173.89 57.0805 173.801 57.8801 173.827 58.6698C173.854 59.4989 173.276 59.3872 172.753 59.3987C172.225 59.4102 171.713 59.4168 171.768 58.6681C171.774 58.586 171.766 58.5039 171.766 58.4218C171.766 53.8084 171.781 49.1966 171.751 44.5832C171.746 43.7836 172.03 43.5653 172.809 43.5587C173.624 43.5521 173.852 43.8444 173.839 44.6111C173.799 46.8489 173.825 49.0866 173.825 51.3244C173.825 51.6199 173.825 51.9138 173.825 52.2093C173.892 52.2405 173.958 52.2717 174.026 52.3029L174.021 52.3062Z" fill="#F7A81B"/>
<path d="M258.96 52.3554C260.329 51.0469 261.694 49.8517 262.923 48.5317C263.798 47.591 264.838 47.8471 265.847 47.8881C266.339 47.9078 265.988 48.2444 265.847 48.3823C264.906 49.305 263.949 50.2129 262.996 51.1241C262.896 51.2193 262.79 51.308 262.679 51.3868C262.004 51.8662 261.898 52.3325 262.425 53.0762C263.69 54.8657 264.849 56.7275 266.048 58.5631C266.179 58.7634 266.412 58.9669 266.297 59.2198C266.171 59.494 265.859 59.3593 265.626 59.3987C264.379 59.6138 263.574 59.1656 262.989 58.0098C262.35 56.7456 261.48 55.5963 260.751 54.3748C260.412 53.8068 260.148 53.8331 259.679 54.2501C259.063 54.8001 258.706 55.3845 258.793 56.2383C258.861 56.9147 258.774 57.6042 258.814 58.284C258.859 59.0293 258.716 59.4792 257.793 59.4151C256.792 59.3446 256.75 59.3675 256.748 58.3201C256.745 55.3993 256.748 52.4786 256.748 49.5595C256.748 47.8668 256.787 46.1741 256.733 44.483C256.707 43.6359 257.15 43.5801 257.815 43.5719C258.487 43.5636 258.833 43.7098 258.819 44.4732C258.781 46.7651 258.803 49.0587 258.811 51.3507C258.811 51.6413 258.736 51.9466 258.962 52.3554H258.96Z" fill="#F7A81B"/>
<path d="M101.458 58.3118C100.398 59.4036 99.1927 59.7763 97.7894 59.7385C95.5691 59.6778 94.209 58.5565 94.1226 56.3614C94.0213 53.746 94.0944 51.1257 94.0828 48.507C94.0811 48.0112 94.3319 47.8635 94.8018 47.8388C96.2117 47.7682 96.2666 47.8011 96.2666 49.1736C96.2682 51.2735 96.2566 53.375 96.2749 55.4748C96.2881 56.9278 96.7415 57.6469 97.703 57.839C99.2043 58.1394 100.455 57.5632 101.004 56.299C101.269 55.6915 101.401 55.0529 101.403 54.3879C101.408 52.5606 101.411 50.7333 101.421 48.906C101.426 47.8766 101.466 47.8438 102.492 47.8438C103.547 47.8438 103.589 47.8717 103.59 48.8764C103.595 52.0139 103.598 55.1497 103.587 58.2872C103.585 58.7682 103.765 59.3675 102.904 59.4053C101.777 59.4529 101.685 59.425 101.456 58.3118H101.458Z" fill="#F7A81B"/>
<path d="M38.6574 59.5152C36.8107 59.9815 35.723 59.0292 34.6286 57.6879C32.2189 54.7376 29.6515 51.912 27.1489 49.034C26.4746 48.2591 26.546 48.3132 27.4594 47.842C29.0553 47.0179 30.0733 47.3495 31.2889 48.7237C34.3031 52.132 37.5547 55.3368 40.7034 58.6303C40.8977 58.8338 41.2962 59.0144 41.1534 59.3346C41.0139 59.6465 40.6087 59.4988 40.3181 59.5086C39.7651 59.5267 39.2121 59.5135 38.6591 59.5135L38.6574 59.5152Z" fill="#F7A81B"/>
<path d="M191.947 56.6519C192.317 55.6258 192.663 54.6883 192.993 53.7459C193.609 51.9941 194.209 50.2358 194.831 48.4856C195.026 47.9389 196.708 47.5465 197.122 47.9323C197.299 48.0998 197.203 48.2886 197.136 48.4626C195.811 51.935 194.481 55.4041 193.156 58.8765C193.023 59.2246 192.8 59.374 192.415 59.4035C190.794 59.5267 190.756 59.5234 190.196 58.031C189.046 54.9609 187.905 51.8858 186.767 48.8123C186.412 47.8552 186.422 47.8404 187.407 47.847C189.021 47.8568 188.806 47.6697 189.306 49.1588C190.044 51.3604 190.764 53.567 191.498 55.7703C191.59 56.0428 191.633 56.3449 191.945 56.6535L191.947 56.6519Z" fill="#F7A81B"/>
<path d="M89.1389 51.4934C89.1389 49.1752 89.1671 46.857 89.1239 44.5404C89.1073 43.69 89.5075 43.5636 90.2349 43.5652C90.9556 43.5685 91.3476 43.6768 91.3409 44.5371C91.3061 49.1719 91.3061 53.8067 91.3409 58.4415C91.3476 59.2969 90.9623 59.4151 90.2382 59.4151C89.5142 59.4151 89.1073 59.2969 89.1239 58.4431C89.1671 56.1266 89.1389 53.8083 89.1389 51.4901V51.4934Z" fill="#F7A81B"/>
<path d="M166.424 49.208C167.282 48.2919 168.081 47.5006 169.35 47.5153C169.798 47.5203 170.245 47.5482 170.164 48.1425C170.091 48.6794 170.559 49.4247 169.518 49.6234C167.106 50.0815 166.52 50.8383 166.518 53.2961C166.518 54.9609 166.492 56.6256 166.53 58.2904C166.547 59.0407 166.419 59.4791 165.502 59.4167C164.487 59.3477 164.453 59.3773 164.451 58.3364C164.448 55.1973 164.456 52.0598 164.444 48.9207C164.443 48.3001 164.428 47.8076 165.326 47.8207C166.102 47.8322 166.48 48.0309 166.371 48.8353C166.361 48.9125 166.392 48.9946 166.425 49.208H166.424Z" fill="#F7A81B"/>
<path d="M185.106 53.6557C185.106 55.2942 185.077 56.9327 185.12 58.5696C185.141 59.3954 184.661 59.4184 184.057 59.4036C183.469 59.3888 182.884 59.4972 182.891 58.5827C182.919 55.2794 182.921 51.9761 182.891 48.6728C182.883 47.7698 183.442 47.8437 184.044 47.8388C184.636 47.8339 185.141 47.8207 185.12 48.6597C185.078 50.3245 185.108 51.9909 185.108 53.6557H185.106Z" fill="#F7A81B"/>
<path d="M62.729 1.33018C60.9321 1.98854 59.2598 2.60585 57.5842 3.21495C56.6343 3.55973 56.0946 3.22918 55.965 2.22331C55.696 0.134952 55.7093 0.13331 57.8001 0.446893C59.1635 0.650475 60.5336 0.816296 61.9003 0.996893C62.1378 1.02809 62.3969 0.993609 62.729 1.33018Z" fill="#F7A81B"/>
<path d="M185.108 44.7226C185.105 45.7816 185.083 45.8029 183.999 45.8013C182.928 45.8013 182.893 45.7635 182.901 44.6225C182.908 43.6095 182.943 43.5783 184.059 43.5832C185.087 43.5882 185.113 43.6161 185.11 44.721L185.108 44.7226Z" fill="#F7A81B"/>
<path d="M290.568 42.9808C291.065 42.7969 291.307 42.4883 291.601 42.2502C291.84 42.0565 292.066 41.9498 292.309 42.242C292.541 42.5227 292.425 42.7411 292.191 42.9414C291.482 43.5472 290.776 44.1547 290.062 44.7556C289.876 44.9115 289.675 45.1069 289.406 44.9148C289.145 44.7277 288.982 44.4847 289.085 44.1432C289.255 43.5735 289.426 43.0054 289.63 42.3208C289.125 42.4275 288.839 42.7247 288.506 42.9233C288.235 43.0842 287.994 43.1236 287.783 42.8412C287.559 42.5408 287.717 42.329 287.964 42.1583C288.71 41.6444 289.459 41.1354 290.216 40.638C290.414 40.5083 290.638 40.3293 290.894 40.5247C291.166 40.7332 291.214 41.0254 291.116 41.3357C290.953 41.8512 290.776 42.3635 290.57 42.9824L290.568 42.9808Z" fill="#F7A81B"/>
<path d="M304.111 50.3426C304.433 49.9601 304.35 49.612 304.41 49.2984C304.465 49.0111 304.556 48.7533 304.923 48.7812C305.264 48.8075 305.303 49.0718 305.284 49.3214C305.207 50.2441 305.121 51.1668 305.016 52.0862C304.99 52.3242 304.92 52.5902 304.603 52.6263C304.267 52.6657 304.003 52.5377 303.852 52.2339C303.578 51.6839 303.314 51.1307 302.959 50.3968C302.817 50.9862 302.719 51.3753 302.633 51.766C302.558 52.1075 302.394 52.3177 302 52.2241C301.643 52.1404 301.6 51.9023 301.675 51.5953C301.892 50.6923 302.098 49.7877 302.321 48.888C302.372 48.6827 302.416 48.4299 302.693 48.4036C302.995 48.3741 303.241 48.5103 303.374 48.778C303.616 49.2623 303.839 49.7581 304.111 50.3393V50.3426Z" fill="#F7A81B"/>
<path d="M320.281 45.9787C320.64 46.4679 320.897 46.8127 321.15 47.1624C321.327 47.4103 321.389 47.6664 321.113 47.8848C320.814 48.1228 320.593 47.939 320.416 47.7107C319.859 46.9982 319.31 46.2791 318.77 45.5551C318.627 45.363 318.453 45.1446 318.659 44.8918C318.851 44.6554 319.107 44.6012 319.404 44.6586C319.912 44.7588 320.379 45.0346 320.972 45.033C320.934 44.6439 320.608 44.4928 320.421 44.2564C320.235 44.0216 319.952 43.8164 320.265 43.4946C320.61 43.1383 320.867 43.406 321.098 43.6407C321.713 44.2679 322.315 44.9049 322.917 45.5452C323.108 45.7488 323.295 45.9737 323.066 46.2627C322.86 46.5221 322.596 46.6288 322.261 46.5336C321.658 46.3612 321.055 46.1937 320.284 45.977L320.281 45.9787Z" fill="#F7A81B"/>
<path d="M301.416 48.883C301.384 49.2097 301.293 49.5824 300.987 49.7827C300.489 50.111 300.424 50.5297 300.534 51.0518C300.589 51.3112 300.645 51.651 300.263 51.7052C299.895 51.7577 299.629 51.5689 299.579 51.1683C299.572 51.1142 299.579 51.0583 299.567 51.0058C299.478 50.6118 299.805 50.0158 299.24 49.8631C298.657 49.7039 298.749 50.3786 298.534 50.6741C298.373 50.8958 298.216 51.0518 297.925 50.9352C297.601 50.8055 297.548 50.5576 297.671 50.2686C298.043 49.3919 298.42 48.5185 298.807 47.6483C298.858 47.5318 298.958 47.4021 299.069 47.3512C299.685 47.0753 301.407 48.1803 301.416 48.8813V48.883Z" fill="#F7A81B"/>
<path d="M319.054 48.182C319.064 49.2032 318.149 50.1407 317.126 50.1571C316.027 50.1751 315.166 49.2984 315.168 48.1574C315.168 47.0968 315.967 46.2759 317.023 46.2463C318.139 46.2168 319.044 47.0787 319.056 48.182H319.054ZM317.148 49.236C317.704 49.1769 318.126 48.9011 318.162 48.2362C318.195 47.6008 317.742 47.1034 317.123 47.1214C316.487 47.1411 316.086 47.4514 316.053 48.1163C316.02 48.7731 316.442 49.2246 317.148 49.236Z" fill="#F7A81B"/>
<path d="M322.533 41.4473C323.578 41.7954 324.624 42.1385 325.665 42.4931C325.821 42.5457 325.977 42.6557 325.914 42.856C325.834 43.1055 325.672 43.2467 325.378 43.2812C324.539 43.3781 324.156 43.8607 324.23 44.7161C324.255 45.0001 324.162 45.2037 323.928 45.3285C323.647 45.4779 323.526 45.2333 323.416 45.0592C322.88 44.2022 322.359 43.3386 321.831 42.4767C321.691 42.2485 321.65 42.0285 321.831 41.797C322.01 41.5704 322.204 41.3915 322.533 41.4473Z" fill="#F7A81B"/>
<path d="M309.361 52.1895C309.341 52.3668 309.278 52.4801 309.136 52.5409C308.919 52.6361 308.701 52.641 308.522 52.4637C307.858 51.8086 307.208 51.7627 306.559 52.4867C306.393 52.6722 306.164 52.6952 305.951 52.5885C305.682 52.4539 305.783 52.2158 305.852 52.0139C306.15 51.1076 306.439 50.1964 306.773 49.3016C306.956 48.8107 307.67 48.6088 307.883 49.0012C308.439 50.0306 308.876 51.1207 309.362 52.1879L309.361 52.1895Z" fill="#F7A81B"/>
<path d="M296.19 50.111C295.929 50.1324 294.042 48.9766 293.956 48.7467C293.875 48.5316 294.009 48.3773 294.115 48.223C294.629 47.4776 295.148 46.7388 295.663 45.9951C295.851 45.7225 296.052 45.5321 296.41 45.7521C296.902 46.0558 297.405 46.3431 297.898 46.6452C298.101 46.77 298.246 46.9374 298.098 47.187C297.965 47.4136 297.754 47.4497 297.523 47.3561C297.294 47.2609 297.075 47.1427 296.849 47.0409C296.631 46.9424 296.382 46.7257 296.186 47.0064C295.969 47.3167 296.303 47.4152 296.49 47.5531C296.578 47.6188 296.676 47.6713 296.763 47.7403C296.939 47.8815 296.972 48.0506 296.854 48.246C296.731 48.4479 296.558 48.4742 296.356 48.3839C296.254 48.3395 296.161 48.2804 296.062 48.2312C295.796 48.0998 295.51 47.8634 295.296 48.2837C295.085 48.6991 295.481 48.7877 295.708 48.9503C295.931 49.1095 296.18 49.2343 296.406 49.3919C296.548 49.4921 296.625 49.6382 296.552 49.8204C296.487 49.983 296.374 50.093 296.188 50.1127L296.19 50.111Z" fill="#F7A81B"/>
<path d="M293.048 44.483C293.024 44.1563 292.83 43.9905 292.679 43.8C292.539 43.6244 292.531 43.4618 292.696 43.296C292.855 43.1335 293.041 43.1039 293.21 43.2451C293.861 43.7869 294.506 44.3353 295.142 44.8918C295.316 45.0445 295.268 45.2317 295.13 45.3991C294.982 45.5781 294.788 45.6126 294.625 45.4681C293.961 44.882 293.621 45.3712 293.25 45.8391C292.963 46.202 292.639 46.5369 292.34 46.8915C292.116 47.1575 291.9 47.2741 291.581 47.0048C291.267 46.7405 291.329 46.5106 291.568 46.2496C291.991 45.7866 292.41 45.3187 292.822 44.8458C292.925 44.726 292.993 44.5766 293.051 44.483H293.048Z" fill="#F7A81B"/>
<path d="M311.692 48.2198C312.036 48.2066 312.214 48.2953 312.28 48.5514C312.353 48.8338 312.18 48.9848 311.953 49.021C311.239 49.1375 311.259 49.5627 311.41 50.1045C311.548 50.602 311.632 51.1142 311.725 51.6232C311.783 51.945 311.745 52.2356 311.333 52.2947C310.973 52.3472 310.835 52.1108 310.775 51.8284C310.651 51.2439 310.541 50.6545 310.438 50.0651C310.365 49.6465 310.246 49.3165 309.699 49.4577C309.434 49.5266 309.184 49.4807 309.113 49.1736C309.038 48.8584 309.261 48.7304 309.523 48.6729C310.277 48.5104 311.033 48.3577 311.695 48.2198H311.692Z" fill="#F7A81B"/>
<path d="M327.849 39.8121C327.537 40.4491 327.21 41.1682 326.672 41.7559C326.525 41.9152 326.303 41.7724 326.137 41.6837C325.338 41.2585 324.543 40.8283 323.75 40.3933C323.473 40.2406 323.221 40.055 323.428 39.6856C323.644 39.3047 323.931 39.4607 324.204 39.6052C324.641 39.835 325.089 40.0501 325.501 40.3177C326.107 40.7118 326.559 40.7068 326.839 39.9582C326.904 39.7841 327.027 39.6265 327.138 39.4738C327.248 39.3244 327.409 39.2867 327.577 39.3671C327.726 39.4377 327.871 39.528 327.849 39.8121Z" fill="#F7A81B"/>
<path d="M313.584 47.6812C313.917 47.6697 313.999 47.9127 314.08 48.1442C314.369 48.9618 314.653 49.781 314.937 50.6003C315.053 50.9369 315.095 51.2422 314.645 51.3785C314.226 51.5066 314.105 51.2127 314.004 50.9303C313.7 50.0897 313.416 49.2409 313.119 48.3986C312.959 47.9471 313.139 47.7304 313.584 47.6828V47.6812Z" fill="#F7A81B"/>
<path d="M287.345 41.5491C287.021 41.5984 286.888 41.4719 286.797 41.2897C286.705 41.1058 286.672 40.9022 286.855 40.7709C287.747 40.1355 288.703 39.6069 289.688 39.1258C289.894 39.0257 290.063 39.1143 290.173 39.3015C290.271 39.4706 290.384 39.6972 290.213 39.8269C289.294 40.5181 288.262 41.0254 287.345 41.5491Z" fill="#F7A81B"/>
<path d="M314.867 9.10571C314.831 9.23541 314.831 9.48825 314.705 9.64586C314.264 10.1975 313.924 10.7524 314.168 11.4945C314.21 11.6209 314.133 11.772 313.977 11.8147C313.735 11.8803 313.537 11.7736 313.393 11.5979C313.19 11.3517 313.205 11.0365 313.172 10.7393C313.144 10.4815 313.069 10.2271 312.775 10.1876C312.473 10.1482 312.459 10.4306 312.386 10.6276C312.358 10.7048 312.323 10.7787 312.295 10.8559C312.179 11.1694 311.946 11.2597 311.636 11.1826C311.295 11.0972 311.209 10.8756 311.303 10.5587C311.568 9.66884 311.823 8.77571 312.099 7.89078C312.144 7.7463 312.252 7.57063 312.378 7.50989C313.062 7.18317 314.867 8.28974 314.866 9.10571H314.867Z" fill="#F7A81B"/>
<path d="M296.736 9.21404C297.458 9.36016 297.917 9.76076 297.948 10.424C297.975 10.9888 298.217 11.3254 298.654 11.6176C298.84 11.7424 299.156 11.8869 298.96 12.1824C298.777 12.4599 298.463 12.5288 298.154 12.3581C297.89 12.212 297.651 12.0248 297.397 11.8639C297.216 11.749 297.023 11.7391 296.871 11.9033C296.733 12.0511 296.842 12.2037 296.907 12.3515C297.013 12.5929 297.262 12.7948 297.158 13.0969C297.09 13.2923 296.907 13.3776 296.723 13.4433C296.459 13.5402 296.294 13.3908 296.18 13.1921C295.703 12.3646 295.233 11.5339 294.77 10.6999C294.677 10.5324 294.602 10.3173 294.796 10.1778C295.401 9.74763 296.05 9.40285 296.734 9.2124L296.736 9.21404Z" fill="#F7A81B"/>
<path d="M310.438 10.3469C310.463 10.6375 310.442 10.8066 310.239 10.8493C310.01 10.8985 309.817 10.8246 309.646 10.6522C308.914 9.91179 308.585 9.86911 307.715 10.4093C307.484 10.5521 307.258 10.6325 307.032 10.4667C306.833 10.319 306.954 10.1105 307.031 9.94627C307.456 9.03344 307.869 8.11403 308.338 7.22418C308.618 6.6906 309.274 6.66105 309.498 7.17985C309.953 8.22896 310.186 9.35194 310.438 10.3452V10.3469Z" fill="#F7A81B"/>
<path d="M300.938 7.5837C301.975 7.59355 302.886 8.50474 302.889 9.53907C302.892 10.6112 301.952 11.5158 300.855 11.4944C299.84 11.4764 298.908 10.5044 298.94 9.49803C298.971 8.46042 299.896 7.57385 300.938 7.5837ZM300.83 8.46206C300.293 8.53922 299.9 8.87086 299.851 9.49475C299.808 10.071 300.365 10.6325 300.911 10.6243C301.489 10.6161 302.029 10.0924 302.03 9.53579C302.034 8.9743 301.489 8.44892 300.83 8.46206Z" fill="#F7A81B"/>
<path d="M319.157 10.3173C319.094 10.6358 318.87 10.7196 318.674 10.7934C317.74 11.1415 316.933 11.611 316.565 12.6043C316.455 12.9015 316.214 13.0066 315.895 12.8473C315.573 12.6881 315.52 12.4254 315.698 12.1709C316.304 11.3007 316.224 10.3797 315.998 9.42418C315.943 9.19433 315.769 8.82985 316.194 8.75925C316.518 8.70507 316.769 8.90701 316.882 9.2288C316.9 9.2797 316.917 9.33388 316.92 9.38806C316.993 10.2812 317.378 10.5258 318.202 10.0448C318.594 9.81657 318.928 9.99224 319.157 10.319V10.3173Z" fill="#F7A81B"/>
<path d="M305.591 6.73816C306.008 6.78905 306.419 6.68234 306.501 7.12562C306.577 7.54756 306.22 7.59353 305.913 7.62309C305.44 7.66741 305.43 7.99413 305.455 8.33398C305.499 8.92831 305.564 9.521 305.609 10.1153C305.631 10.4174 305.536 10.662 305.181 10.6932C304.83 10.7244 304.679 10.4946 304.634 10.2056C304.546 9.64413 304.465 9.07936 304.423 8.51129C304.388 8.03846 304.271 7.70846 303.691 7.81025C303.405 7.8595 303.188 7.76428 303.163 7.45234C303.135 7.11413 303.414 7.06488 303.656 7.02547C304.334 6.91547 305.013 6.82353 305.592 6.73816H305.591Z" fill="#F7A81B"/>
<path d="M306.868 35.1429C303.882 35.1429 301.411 32.7229 301.406 29.7906C301.401 26.8124 303.847 24.358 306.863 24.3169C309.832 24.2759 312.338 26.7418 312.375 29.7414C312.409 32.6917 309.91 35.1429 306.869 35.1429H306.868ZM306.962 33.1465C308.547 33.1465 309.892 32.1565 310.292 30.6969C310.717 29.1487 310.038 27.5677 308.602 26.796C308.191 26.576 307.806 26.4036 307.627 25.8832C307.474 25.4399 306.277 25.5105 306.082 25.9768C305.905 26.402 305.591 26.5957 305.237 26.8174C303.819 27.7006 303.204 29.2653 303.661 30.7724C304.091 32.1959 305.416 33.1481 306.962 33.1481V33.1465Z" fill="#F7A81B"/>
</svg>
