<svg width="42" height="58" viewBox="0 0 42 58" fill="none" xmlns="http://www.w3.org/2000/svg">
<g clip-path="url(#clip0_3_8)">
<path d="M4.05186 0.768362H37.1957C39.0114 0.768362 40.4868 2.25371 40.4868 4.08165V53.6683C40.4868 55.4963 39.0138 56.9816 37.1957 56.9816H4.05186C2.23619 56.9816 0.760803 55.4987 0.760803 53.6683V4.0792C0.760803 2.25126 2.23376 0.765915 4.05186 0.765915V0.768362Z" fill="#17478F"/>
<path d="M5.70951 4.68852C6.55522 4.68852 7.2408 3.99831 7.2408 3.14689C7.2408 2.29547 6.55522 1.60526 5.70951 1.60526C4.8638 1.60526 4.17822 2.29547 4.17822 3.14689C4.17822 3.99831 4.8638 4.68852 5.70951 4.68852Z" fill="#2162C1"/>
<path d="M20.6335 4.68852C21.4792 4.68852 22.1648 3.99831 22.1648 3.14689C22.1648 2.29547 21.4792 1.60526 20.6335 1.60526C19.7878 1.60526 19.1022 2.29547 19.1022 3.14689C19.1022 3.99831 19.7878 4.68852 20.6335 4.68852Z" fill="#2162C1"/>
<path d="M13.1715 4.68852C14.0172 4.68852 14.7028 3.99831 14.7028 3.14689C14.7028 2.29547 14.0172 1.60526 13.1715 1.60526C12.3258 1.60526 11.6402 2.29547 11.6402 3.14689C11.6402 3.99831 12.3258 4.68852 13.1715 4.68852Z" fill="#2162C1"/>
<path d="M28.0858 4.68852C28.9315 4.68852 29.6171 3.99831 29.6171 3.14689C29.6171 2.29547 28.9315 1.60526 28.0858 1.60526C27.2401 1.60526 26.5545 2.29547 26.5545 3.14689C26.5545 3.99831 27.2401 4.68852 28.0858 4.68852Z" fill="#2162C1"/>
<path d="M35.5404 4.68852C36.3862 4.68852 37.0717 3.99831 37.0717 3.14689C37.0717 2.29547 36.3862 1.60526 35.5404 1.60526C34.6947 1.60526 34.0092 2.29547 34.0092 3.14689C34.0092 3.99831 34.6947 4.68852 35.5404 4.68852Z" fill="#2162C1"/>
<path d="M1.81809 10.0182C2.6638 10.0182 3.34938 9.32794 3.34938 8.47652C3.34938 7.6251 2.6638 6.93489 1.81809 6.93489C0.972385 6.93489 0.286804 7.6251 0.286804 8.47652C0.286804 9.32794 0.972385 10.0182 1.81809 10.0182Z" fill="#2162C1"/>
<path d="M39.3055 10.0182C40.1512 10.0182 40.8368 9.32794 40.8368 8.47652C40.8368 7.6251 40.1512 6.93489 39.3055 6.93489C38.4598 6.93489 37.7742 7.6251 37.7742 8.47652C37.7742 9.32794 38.4598 10.0182 39.3055 10.0182Z" fill="#2162C1"/>
<path d="M16.7421 10.0182C17.5878 10.0182 18.2734 9.32794 18.2734 8.47652C18.2734 7.6251 17.5878 6.93489 16.7421 6.93489C15.8964 6.93489 15.2108 7.6251 15.2108 8.47652C15.2108 9.32794 15.8964 10.0182 16.7421 10.0182Z" fill="#2162C1"/>
<path d="M9.28007 10.0182C10.1258 10.0182 10.8114 9.32794 10.8114 8.47652C10.8114 7.6251 10.1258 6.93489 9.28007 6.93489C8.43436 6.93489 7.74878 7.6251 7.74878 8.47652C7.74878 9.32794 8.43436 10.0182 9.28007 10.0182Z" fill="#2162C1"/>
<path d="M24.1968 10.0182C25.0425 10.0182 25.728 9.32794 25.728 8.47652C25.728 7.6251 25.0425 6.93489 24.1968 6.93489C23.351 6.93489 22.6655 7.6251 22.6655 8.47652C22.6655 9.32794 23.351 10.0182 24.1968 10.0182Z" fill="#2162C1"/>
<path d="M31.649 10.0182C32.4947 10.0182 33.1803 9.32794 33.1803 8.47652C33.1803 7.6251 32.4947 6.93489 31.649 6.93489C30.8033 6.93489 30.1177 7.6251 30.1177 8.47652C30.1177 9.32794 30.8033 10.0182 31.649 10.0182Z" fill="#2162C1"/>
<path d="M5.70951 16.2336C6.55522 16.2336 7.2408 15.5434 7.2408 14.692C7.2408 13.8406 6.55522 13.1504 5.70951 13.1504C4.8638 13.1504 4.17822 13.8406 4.17822 14.692C4.17822 15.5434 4.8638 16.2336 5.70951 16.2336Z" fill="#2162C1"/>
<path d="M20.6335 16.2336C21.4792 16.2336 22.1648 15.5434 22.1648 14.692C22.1648 13.8406 21.4792 13.1504 20.6335 13.1504C19.7878 13.1504 19.1022 13.8406 19.1022 14.692C19.1022 15.5434 19.7878 16.2336 20.6335 16.2336Z" fill="#2162C1"/>
<path d="M13.1715 16.2336C14.0172 16.2336 14.7028 15.5434 14.7028 14.692C14.7028 13.8406 14.0172 13.1504 13.1715 13.1504C12.3258 13.1504 11.6402 13.8406 11.6402 14.692C11.6402 15.5434 12.3258 16.2336 13.1715 16.2336Z" fill="#2162C1"/>
<path d="M28.0858 16.2336C28.9315 16.2336 29.6171 15.5434 29.6171 14.692C29.6171 13.8406 28.9315 13.1504 28.0858 13.1504C27.2401 13.1504 26.5545 13.8406 26.5545 14.692C26.5545 15.5434 27.2401 16.2336 28.0858 16.2336Z" fill="#2162C1"/>
<path d="M35.5404 16.2336C36.3862 16.2336 37.0717 15.5434 37.0717 14.692C37.0717 13.8406 36.3862 13.1504 35.5404 13.1504C34.6947 13.1504 34.0092 13.8406 34.0092 14.692C34.0092 15.5434 34.6947 16.2336 35.5404 16.2336Z" fill="#2162C1"/>
<path d="M1.81809 21.5657C2.6638 21.5657 3.34938 20.8755 3.34938 20.0241C3.34938 19.1727 2.6638 18.4825 1.81809 18.4825C0.972385 18.4825 0.286804 19.1727 0.286804 20.0241C0.286804 20.8755 0.972385 21.5657 1.81809 21.5657Z" fill="#2162C1"/>
<path d="M39.3055 21.5657C40.1512 21.5657 40.8368 20.8755 40.8368 20.0241C40.8368 19.1727 40.1512 18.4825 39.3055 18.4825C38.4598 18.4825 37.7742 19.1727 37.7742 20.0241C37.7742 20.8755 38.4598 21.5657 39.3055 21.5657Z" fill="#2162C1"/>
<path d="M16.7421 21.5657C17.5878 21.5657 18.2734 20.8755 18.2734 20.0241C18.2734 19.1727 17.5878 18.4825 16.7421 18.4825C15.8964 18.4825 15.2108 19.1727 15.2108 20.0241C15.2108 20.8755 15.8964 21.5657 16.7421 21.5657Z" fill="#2162C1"/>
<path d="M9.28007 21.5657C10.1258 21.5657 10.8114 20.8755 10.8114 20.0241C10.8114 19.1727 10.1258 18.4825 9.28007 18.4825C8.43436 18.4825 7.74878 19.1727 7.74878 20.0241C7.74878 20.8755 8.43436 21.5657 9.28007 21.5657Z" fill="#2162C1"/>
<path d="M24.1968 21.5657C25.0425 21.5657 25.728 20.8755 25.728 20.0241C25.728 19.1727 25.0425 18.4825 24.1968 18.4825C23.351 18.4825 22.6655 19.1727 22.6655 20.0241C22.6655 20.8755 23.351 21.5657 24.1968 21.5657Z" fill="#2162C1"/>
<path d="M31.649 21.5657C32.4947 21.5657 33.1803 20.8755 33.1803 20.0241C33.1803 19.1727 32.4947 18.4825 31.649 18.4825C30.8033 18.4825 30.1177 19.1727 30.1177 20.0241C30.1177 20.8755 30.8033 21.5657 31.649 21.5657Z" fill="#2162C1"/>
<path d="M5.70951 27.7812C6.55522 27.7812 7.2408 27.091 7.2408 26.2395C7.2408 25.3881 6.55522 24.6979 5.70951 24.6979C4.8638 24.6979 4.17822 25.3881 4.17822 26.2395C4.17822 27.091 4.8638 27.7812 5.70951 27.7812Z" fill="#2162C1"/>
<path d="M20.6335 27.7812C21.4792 27.7812 22.1648 27.091 22.1648 26.2395C22.1648 25.3881 21.4792 24.6979 20.6335 24.6979C19.7878 24.6979 19.1022 25.3881 19.1022 26.2395C19.1022 27.091 19.7878 27.7812 20.6335 27.7812Z" fill="#2162C1"/>
<path d="M13.1715 27.7812C14.0172 27.7812 14.7028 27.091 14.7028 26.2395C14.7028 25.3881 14.0172 24.6979 13.1715 24.6979C12.3258 24.6979 11.6402 25.3881 11.6402 26.2395C11.6402 27.091 12.3258 27.7812 13.1715 27.7812Z" fill="#2162C1"/>
<path d="M28.0858 27.7812C28.9315 27.7812 29.6171 27.091 29.6171 26.2395C29.6171 25.3881 28.9315 24.6979 28.0858 24.6979C27.2401 24.6979 26.5545 25.3881 26.5545 26.2395C26.5545 27.091 27.2401 27.7812 28.0858 27.7812Z" fill="#2162C1"/>
<path d="M35.5404 27.7812C36.3862 27.7812 37.0717 27.091 37.0717 26.2395C37.0717 25.3881 36.3862 24.6979 35.5404 24.6979C34.6947 24.6979 34.0092 25.3881 34.0092 26.2395C34.0092 27.091 34.6947 27.7812 35.5404 27.7812Z" fill="#2162C1"/>
<path d="M1.81809 33.1108C2.6638 33.1108 3.34938 32.4206 3.34938 31.5692C3.34938 30.7178 2.6638 30.0275 1.81809 30.0275C0.972385 30.0275 0.286804 30.7178 0.286804 31.5692C0.286804 32.4206 0.972385 33.1108 1.81809 33.1108Z" fill="#2162C1"/>
<path d="M39.3055 33.1108C40.1512 33.1108 40.8368 32.4206 40.8368 31.5692C40.8368 30.7178 40.1512 30.0275 39.3055 30.0275C38.4598 30.0275 37.7742 30.7178 37.7742 31.5692C37.7742 32.4206 38.4598 33.1108 39.3055 33.1108Z" fill="#2162C1"/>
<path d="M16.7421 33.1108C17.5878 33.1108 18.2734 32.4206 18.2734 31.5692C18.2734 30.7178 17.5878 30.0275 16.7421 30.0275C15.8964 30.0275 15.2108 30.7178 15.2108 31.5692C15.2108 32.4206 15.8964 33.1108 16.7421 33.1108Z" fill="#2162C1"/>
<path d="M9.28007 33.1108C10.1258 33.1108 10.8114 32.4206 10.8114 31.5692C10.8114 30.7178 10.1258 30.0275 9.28007 30.0275C8.43436 30.0275 7.74878 30.7178 7.74878 31.5692C7.74878 32.4206 8.43436 33.1108 9.28007 33.1108Z" fill="#2162C1"/>
<path d="M24.1968 33.1108C25.0425 33.1108 25.728 32.4206 25.728 31.5692C25.728 30.7178 25.0425 30.0275 24.1968 30.0275C23.351 30.0275 22.6655 30.7178 22.6655 31.5692C22.6655 32.4206 23.351 33.1108 24.1968 33.1108Z" fill="#2162C1"/>
<path d="M31.649 33.1108C32.4947 33.1108 33.1803 32.4206 33.1803 31.5692C33.1803 30.7178 32.4947 30.0275 31.649 30.0275C30.8033 30.0275 30.1177 30.7178 30.1177 31.5692C30.1177 32.4206 30.8033 33.1108 31.649 33.1108Z" fill="#2162C1"/>
<path d="M5.70951 39.3263C6.55522 39.3263 7.2408 38.6361 7.2408 37.7847C7.2408 36.9332 6.55522 36.243 5.70951 36.243C4.8638 36.243 4.17822 36.9332 4.17822 37.7847C4.17822 38.6361 4.8638 39.3263 5.70951 39.3263Z" fill="#2162C1"/>
<path d="M20.6335 39.3263C21.4792 39.3263 22.1648 38.6361 22.1648 37.7847C22.1648 36.9332 21.4792 36.243 20.6335 36.243C19.7878 36.243 19.1022 36.9332 19.1022 37.7847C19.1022 38.6361 19.7878 39.3263 20.6335 39.3263Z" fill="#2162C1"/>
<path d="M13.1715 39.3263C14.0172 39.3263 14.7028 38.6361 14.7028 37.7847C14.7028 36.9332 14.0172 36.243 13.1715 36.243C12.3258 36.243 11.6402 36.9332 11.6402 37.7847C11.6402 38.6361 12.3258 39.3263 13.1715 39.3263Z" fill="#2162C1"/>
<path d="M28.0858 39.3263C28.9315 39.3263 29.6171 38.6361 29.6171 37.7847C29.6171 36.9332 28.9315 36.243 28.0858 36.243C27.2401 36.243 26.5545 36.9332 26.5545 37.7847C26.5545 38.6361 27.2401 39.3263 28.0858 39.3263Z" fill="#2162C1"/>
<path d="M35.5404 39.3263C36.3862 39.3263 37.0717 38.6361 37.0717 37.7847C37.0717 36.9332 36.3862 36.243 35.5404 36.243C34.6947 36.243 34.0092 36.9332 34.0092 37.7847C34.0092 38.6361 34.6947 39.3263 35.5404 39.3263Z" fill="#2162C1"/>
<path d="M1.81809 44.6584C2.6638 44.6584 3.34938 43.9682 3.34938 43.1167C3.34938 42.2653 2.6638 41.5751 1.81809 41.5751C0.972385 41.5751 0.286804 42.2653 0.286804 43.1167C0.286804 43.9682 0.972385 44.6584 1.81809 44.6584Z" fill="#2162C1"/>
<path d="M39.3055 44.6584C40.1512 44.6584 40.8368 43.9682 40.8368 43.1167C40.8368 42.2653 40.1512 41.5751 39.3055 41.5751C38.4598 41.5751 37.7742 42.2653 37.7742 43.1167C37.7742 43.9682 38.4598 44.6584 39.3055 44.6584Z" fill="#2162C1"/>
<path d="M16.7421 44.6584C17.5878 44.6584 18.2734 43.9682 18.2734 43.1167C18.2734 42.2653 17.5878 41.5751 16.7421 41.5751C15.8964 41.5751 15.2108 42.2653 15.2108 43.1167C15.2108 43.9682 15.8964 44.6584 16.7421 44.6584Z" fill="#2162C1"/>
<path d="M9.28007 44.6584C10.1258 44.6584 10.8114 43.9682 10.8114 43.1167C10.8114 42.2653 10.1258 41.5751 9.28007 41.5751C8.43436 41.5751 7.74878 42.2653 7.74878 43.1167C7.74878 43.9682 8.43436 44.6584 9.28007 44.6584Z" fill="#2162C1"/>
<path d="M24.1968 44.6584C25.0425 44.6584 25.728 43.9682 25.728 43.1167C25.728 42.2653 25.0425 41.5751 24.1968 41.5751C23.351 41.5751 22.6655 42.2653 22.6655 43.1167C22.6655 43.9682 23.351 44.6584 24.1968 44.6584Z" fill="#2162C1"/>
<path d="M31.649 44.6584C32.4947 44.6584 33.1803 43.9682 33.1803 43.1167C33.1803 42.2653 32.4947 41.5751 31.649 41.5751C30.8033 41.5751 30.1177 42.2653 30.1177 43.1167C30.1177 43.9682 30.8033 44.6584 31.649 44.6584Z" fill="#2162C1"/>
<path d="M5.70951 50.8738C6.55522 50.8738 7.2408 50.1836 7.2408 49.3322C7.2408 48.4808 6.55522 47.7906 5.70951 47.7906C4.8638 47.7906 4.17822 48.4808 4.17822 49.3322C4.17822 50.1836 4.8638 50.8738 5.70951 50.8738Z" fill="#2162C1"/>
<path d="M20.6335 50.8738C21.4792 50.8738 22.1648 50.1836 22.1648 49.3322C22.1648 48.4808 21.4792 47.7906 20.6335 47.7906C19.7878 47.7906 19.1022 48.4808 19.1022 49.3322C19.1022 50.1836 19.7878 50.8738 20.6335 50.8738Z" fill="#2162C1"/>
<path d="M13.1715 50.8738C14.0172 50.8738 14.7028 50.1836 14.7028 49.3322C14.7028 48.4808 14.0172 47.7906 13.1715 47.7906C12.3258 47.7906 11.6402 48.4808 11.6402 49.3322C11.6402 50.1836 12.3258 50.8738 13.1715 50.8738Z" fill="#2162C1"/>
<path d="M28.0858 50.8738C28.9315 50.8738 29.6171 50.1836 29.6171 49.3322C29.6171 48.4808 28.9315 47.7906 28.0858 47.7906C27.2401 47.7906 26.5545 48.4808 26.5545 49.3322C26.5545 50.1836 27.2401 50.8738 28.0858 50.8738Z" fill="#2162C1"/>
<path d="M35.5404 50.8738C36.3862 50.8738 37.0717 50.1836 37.0717 49.3322C37.0717 48.4808 36.3862 47.7906 35.5404 47.7906C34.6947 47.7906 34.0092 48.4808 34.0092 49.3322C34.0092 50.1836 34.6947 50.8738 35.5404 50.8738Z" fill="#2162C1"/>
<path d="M1.81809 56.2035C2.6638 56.2035 3.34938 55.5133 3.34938 54.6618C3.34938 53.8104 2.6638 53.1202 1.81809 53.1202C0.972385 53.1202 0.286804 53.8104 0.286804 54.6618C0.286804 55.5133 0.972385 56.2035 1.81809 56.2035Z" fill="#2162C1"/>
<path d="M39.3055 56.2035C40.1512 56.2035 40.8368 55.5133 40.8368 54.6618C40.8368 53.8104 40.1512 53.1202 39.3055 53.1202C38.4598 53.1202 37.7742 53.8104 37.7742 54.6618C37.7742 55.5133 38.4598 56.2035 39.3055 56.2035Z" fill="#2162C1"/>
<path d="M16.7421 56.2035C17.5878 56.2035 18.2734 55.5133 18.2734 54.6618C18.2734 53.8104 17.5878 53.1202 16.7421 53.1202C15.8964 53.1202 15.2108 53.8104 15.2108 54.6618C15.2108 55.5133 15.8964 56.2035 16.7421 56.2035Z" fill="#2162C1"/>
<path d="M9.28007 56.2035C10.1258 56.2035 10.8114 55.5133 10.8114 54.6618C10.8114 53.8104 10.1258 53.1202 9.28007 53.1202C8.43436 53.1202 7.74878 53.8104 7.74878 54.6618C7.74878 55.5133 8.43436 56.2035 9.28007 56.2035Z" fill="#2162C1"/>
<path d="M24.1968 56.2035C25.0425 56.2035 25.728 55.5133 25.728 54.6618C25.728 53.8104 25.0425 53.1202 24.1968 53.1202C23.351 53.1202 22.6655 53.8104 22.6655 54.6618C22.6655 55.5133 23.351 56.2035 24.1968 56.2035Z" fill="#2162C1"/>
<path d="M31.649 56.2035C32.4947 56.2035 33.1803 55.5133 33.1803 54.6618C33.1803 53.8104 32.4947 53.1202 31.649 53.1202C30.8033 53.1202 30.1177 53.8104 30.1177 54.6618C30.1177 55.5133 30.8033 56.2035 31.649 56.2035Z" fill="#2162C1"/>
<path d="M37.1957 1.5368C38.5885 1.5368 39.7236 2.67712 39.7236 4.08172V53.6684C39.7236 55.0706 38.5909 56.2133 37.1957 56.2133H4.05184C2.65909 56.2133 1.524 55.073 1.524 53.6684V4.07927C1.524 2.67712 2.65666 1.53436 4.05184 1.53436H37.1957M37.1957 -0.00238037H4.05184C1.81567 6.66629e-05 0 1.828 0 4.07927V53.6684C0 55.9221 1.81567 57.7476 4.05184 57.7476H37.1957C39.4343 57.7476 41.2476 55.9197 41.2476 53.6684V4.07927C41.2476 1.82555 39.4319 6.66629e-05 37.1957 6.66629e-05V-0.00238037Z" fill="#F7A81B"/>
<path d="M33.2338 30.0447C34.5585 30.0447 35.538 29.3693 35.538 29.3693V28.3807C35.538 28.3807 34.5585 27.7053 33.2338 27.7053C33.2046 27.3725 33.1609 27.0446 33.105 26.7192C34.3859 26.3717 35.1564 25.4663 35.1564 25.4663C35.0932 25.2289 34.9668 24.7493 34.9012 24.5119C34.9012 24.5119 33.7831 24.1131 32.5046 24.4581C32.3904 24.1449 32.264 23.839 32.1254 23.538C33.2727 22.87 33.7856 21.7933 33.7856 21.7933C33.6616 21.5804 33.4161 21.1497 33.2946 20.9368C33.2946 20.9368 32.1109 20.8438 30.9636 21.5119C30.774 21.2403 30.5723 20.9784 30.3608 20.7215C31.299 19.7794 31.5154 18.6024 31.5154 18.6024C31.3428 18.4286 30.9952 18.0787 30.8202 17.9025C30.8202 17.9025 29.6535 18.1227 28.7153 19.0648C28.4625 18.8544 28.2024 18.6513 27.9326 18.4604C28.5938 17.303 28.5014 16.1137 28.5014 16.1137C28.2899 15.9914 27.8646 15.7442 27.6531 15.6194C27.6531 15.6194 26.5836 16.1333 25.9201 17.2883C25.6235 17.1488 25.3173 17.0216 25.0086 16.9066C25.3513 15.6194 24.9551 14.4938 24.9551 14.4938C24.7194 14.4302 24.243 14.3005 24.0072 14.2368C24.0072 14.2368 23.1054 15.0126 22.7627 16.3021C22.4394 16.2459 22.1137 16.2043 21.7832 16.1724C21.7832 14.8364 21.1099 13.8527 21.1099 13.8527H20.1304C20.1304 13.8527 19.4571 14.8364 19.4571 16.1724C19.1265 16.2043 18.7984 16.2459 18.4775 16.3021C18.1348 15.0126 17.2331 14.2368 17.2331 14.2368C16.9973 14.3005 16.5209 14.4277 16.2851 14.4938C16.2851 14.4938 15.8889 15.6194 16.2316 16.9066C15.9205 17.0216 15.6167 17.1488 15.3202 17.2883C14.6566 16.1333 13.5871 15.6194 13.5871 15.6194C13.3757 15.7418 12.9503 15.9889 12.7388 16.1137C12.7388 16.1137 12.6465 17.3054 13.3076 18.4604C13.0378 18.6513 12.7777 18.8544 12.525 19.0648C11.5867 18.1227 10.42 17.9025 10.42 17.9025C10.2475 18.0762 9.89988 18.4262 9.72488 18.6024C9.72488 18.6024 9.94121 19.7769 10.8794 20.7215C10.6704 20.976 10.4686 21.2378 10.2766 21.5119C9.12938 20.8438 7.94567 20.9368 7.94567 20.9368C7.82414 21.1497 7.57622 21.5804 7.45468 21.7933C7.45468 21.7933 7.96754 22.87 9.1148 23.538C8.97625 23.8366 8.84986 24.1449 8.73562 24.4581C7.45468 24.1131 6.33903 24.5119 6.33903 24.5119C6.27584 24.7493 6.14701 25.2289 6.08382 25.4663C6.08382 25.4663 6.85432 26.3741 8.13526 26.7192C8.07935 27.0446 8.0356 27.3725 8.00643 27.7053C6.68175 27.7053 5.70221 28.3807 5.70221 28.3807V29.3693C5.70221 29.3693 6.68175 30.0447 8.00643 30.0447C8.0356 30.3775 8.07935 30.7054 8.13526 31.0308C6.85432 31.3759 6.08382 32.2837 6.08382 32.2837C6.14701 32.5211 6.2734 33.0007 6.33903 33.2381C6.33903 33.2381 7.45711 33.6369 8.73562 33.2919C8.84986 33.6051 8.97625 33.911 9.1148 34.212C7.96754 34.8776 7.45468 35.9567 7.45468 35.9567C7.57622 36.1696 7.82414 36.5978 7.94567 36.8107C7.94567 36.8107 9.12938 36.9037 10.2766 36.2381C10.4662 36.5097 10.668 36.7716 10.8794 37.0261C9.94121 37.9706 9.72488 39.1452 9.72488 39.1452C9.89745 39.3189 10.245 39.6689 10.42 39.8426C10.42 39.8426 11.5867 39.6248 12.525 38.6803C12.7777 38.8932 13.0378 39.0938 13.3076 39.2871C12.6465 40.4421 12.7388 41.6338 12.7388 41.6338C12.9503 41.7562 13.3757 42.0033 13.5871 42.1281C13.5871 42.1281 14.6566 41.6118 15.3202 40.4593C15.6167 40.5987 15.923 40.726 16.2316 40.841C15.8914 42.1306 16.2851 43.2538 16.2851 43.2538C16.5209 43.3174 16.9973 43.4446 17.2331 43.5107C17.2331 43.5107 18.1348 42.735 18.4775 41.4454C18.7984 41.5017 19.1265 41.5433 19.4571 41.5751C19.4571 42.9112 20.1304 43.8949 20.1304 43.8949H21.1099C21.1099 43.8949 21.7832 42.9112 21.7832 41.5751C22.1137 41.5457 22.4419 41.5017 22.7627 41.4454C23.1054 42.735 24.0072 43.5107 24.0072 43.5107C24.243 43.4471 24.7194 43.3174 24.9551 43.2538C24.9551 43.2538 25.3489 42.1281 25.0086 40.841C25.3197 40.726 25.6235 40.5987 25.9201 40.4593C26.5836 41.6143 27.6531 42.1281 27.6531 42.1281C27.8646 42.0058 28.2899 41.7586 28.5014 41.6338C28.5014 41.6338 28.5938 40.4421 27.9326 39.2871C28.2024 39.0963 28.4625 38.8932 28.7153 38.6803C29.6535 39.6248 30.8202 39.8426 30.8202 39.8426C30.9928 39.6689 31.3428 39.3189 31.5154 39.1452C31.5154 39.1452 31.299 37.9706 30.3608 37.0261C30.5699 36.7716 30.7716 36.5097 30.9636 36.2381C32.1109 36.9062 33.2946 36.8107 33.2946 36.8107C33.4161 36.5978 33.664 36.1696 33.7856 35.9567C33.7856 35.9567 33.2727 34.88 32.1254 34.212C32.264 33.911 32.3904 33.6051 32.5046 33.2919C33.7856 33.6369 34.9012 33.2381 34.9012 33.2381C34.9644 33.0007 35.0932 32.5211 35.1564 32.2837C35.1564 32.2837 34.3859 31.3759 33.105 31.0308C33.1609 30.7054 33.2046 30.3775 33.2338 30.0447ZM20.6238 40.0898C14.4719 40.0898 9.48668 35.0684 9.48668 28.875C10.0725 14.0019 31.1775 14.0044 31.7633 28.875C31.7633 35.0684 26.7781 40.0898 20.6262 40.0898H20.6238Z" fill="#F7A81B"/>
<path d="M20.8182 18.9523C15.2254 18.8446 10.6656 23.4304 10.7701 29.061C11.5795 42.1991 30.1785 41.8712 30.4799 28.689C30.3851 23.3839 26.0878 19.0526 20.8182 18.9523ZM27.2424 23.6653C20.9033 26.7852 22.3714 27.4777 21.7881 20.4988C23.9975 20.8071 25.9298 21.9768 27.2424 23.6653ZM19.4547 20.5013C18.9685 27.5903 20.2957 26.6482 14.0052 23.6726C15.3153 21.9866 17.2477 20.812 19.4547 20.5013ZM12.841 32.0439C12.0316 30.1132 12.0291 27.6393 12.8385 25.7036C18.6769 29.6434 18.5359 28.0773 12.841 32.0439ZM14.0101 34.0798C20.3491 30.9599 18.881 30.2674 19.4644 37.2463C17.255 36.938 15.3226 35.7683 14.0101 34.0798ZM19.4352 31.2976C17.6414 30.5047 17.4348 27.7102 19.0876 26.6531C19.7463 26.1245 20.4682 27.2502 19.7026 27.627C18.6015 28.4492 19.056 30.2551 20.4536 30.4166C22.0238 30.5806 22.7846 28.574 21.5596 27.6368C20.8037 27.3065 21.4308 26.1612 22.1113 26.6213H22.1162C24.8604 28.4517 22.3933 32.7829 19.4304 31.2976H19.4352ZM21.7978 37.2439C22.2839 30.1573 20.9568 31.0945 27.2472 34.0725C25.9371 35.7585 24.0048 36.9331 21.7978 37.2439ZM24.2406 29.3057C23.9489 29.1148 23.9464 28.6841 24.2357 28.4884L28.4115 25.6988V25.6939C29.2209 27.627 29.2233 30.101 28.4139 32.0366L24.2406 29.3057Z" fill="#F7A81B"/>
</g>
<defs>
<clipPath id="clip0_3_8">
<rect width="41.25" height="57.75" fill="white"/>
</clipPath>
</defs>
</svg>
